<svg width="42" height="42" viewBox="0 0 42 42" fill="none" xmlns="http://www.w3.org/2000/svg">
<g clip-path="url(#clip0_1_3695)">
<path d="M40.7025 28.3513L36.1525 11.952C35.1809 8.44401 33.0638 5.36178 30.1382 3.19588C27.2127 1.02998 23.6467 -0.0951052 20.0078 -0.000325818C16.369 0.0944536 12.8664 1.40366 10.0575 3.71891C7.24864 6.03417 5.2949 9.22244 4.50724 12.7763L0.987992 28.6138C0.817704 29.3811 0.821858 30.1768 1.00015 30.9422C1.17843 31.7077 1.52631 32.4233 2.0181 33.0364C2.5099 33.6495 3.13306 34.1443 3.84162 34.4844C4.55018 34.8244 5.32605 35.0011 6.11199 35.0013H12.4242C12.8259 36.9793 13.899 38.7576 15.4618 40.0349C17.0246 41.3123 18.9809 42.0101 20.9992 42.0101C23.0176 42.0101 24.9739 41.3123 26.5367 40.0349C28.0995 38.7576 29.1726 36.9793 29.5742 35.0013H35.6467C36.4554 35.0009 37.2531 34.8137 37.9775 34.4543C38.702 34.0949 39.3336 33.573 39.8231 32.9294C40.3127 32.2857 40.6469 31.5376 40.7997 30.7435C40.9526 29.9494 40.9199 29.1307 40.7042 28.3513H40.7025ZM20.9992 38.5013C19.9173 38.4968 18.8631 38.1581 17.981 37.5316C17.0989 36.9051 16.4319 36.0214 16.0712 35.0013H25.9272C25.5666 36.0214 24.8996 36.9051 24.0175 37.5316C23.1353 38.1581 22.0812 38.4968 20.9992 38.5013ZM37.038 30.81C36.8747 31.0265 36.6631 31.2017 36.42 31.3217C36.1769 31.4418 35.9091 31.5033 35.638 31.5013H6.11199C5.84995 31.5012 5.59126 31.4423 5.35502 31.3289C5.11879 31.2156 4.91103 31.0506 4.74709 30.8461C4.58314 30.6417 4.4672 30.4031 4.40782 30.1479C4.34844 29.8926 4.34713 29.6273 4.40399 29.3715L7.92324 13.534C8.54336 10.7449 10.078 8.24308 12.2833 6.42631C14.4886 4.60954 17.2378 3.58208 20.0941 3.50725C22.9504 3.43243 25.7497 4.31453 28.047 6.01335C30.3444 7.71216 32.0079 10.1302 32.7732 12.883L37.3232 29.2823C37.3975 29.5416 37.4104 29.8147 37.3609 30.0798C37.3114 30.345 37.2009 30.595 37.038 30.81Z" fill="#1D1D1E"/>
</g>
<defs>
<clipPath id="clip0_1_3695">
<rect width="42" height="42" fill="white"/>
</clipPath>
</defs>
</svg>
