<svg width="36" height="36" viewBox="0 0 36 36" fill="none" xmlns="http://www.w3.org/2000/svg">
<path d="M29.6771 18.1185C29.4311 17.2395 29.1536 16.3095 28.8446 15.309C27.9295 12.7863 27.3113 10.1657 27.0026 7.5C27.0026 7.10218 27.1606 6.72064 27.4419 6.43934C27.7232 6.15804 28.1047 6 28.5026 6C28.9004 6 29.2819 6.15804 29.5632 6.43934C29.8445 6.72064 30.0026 7.10218 30.0026 7.5C30.0026 7.89782 30.1606 8.27936 30.4419 8.56066C30.7232 8.84196 31.1047 9 31.5026 9C31.9004 9 32.2819 8.84196 32.5632 8.56066C32.8445 8.27936 33.0025 7.89782 33.0025 7.5C33.0025 6.30653 32.5284 5.16193 31.6845 4.31802C30.8406 3.47411 29.696 3 28.5026 3C27.3091 3 26.1645 3.47411 25.3206 4.31802C24.4767 5.16193 24.0026 6.30653 24.0026 7.5C24.0397 8.6454 24.2002 9.78346 24.4811 10.8945L17.2811 16.5L8.95905 10.5H13.5026C13.9004 10.5 14.2819 10.342 14.5632 10.0607C14.8445 9.77936 15.0026 9.39782 15.0026 9C15.0026 8.60218 14.8445 8.22064 14.5632 7.93934C14.2819 7.65804 13.9004 7.5 13.5026 7.5H8.95905C8.3359 7.49981 7.72866 7.69673 7.2242 8.06257C6.71974 8.42841 6.34392 8.94444 6.15052 9.53682C5.95711 10.1292 5.95602 10.7676 6.1474 11.3606C6.33879 11.9536 6.71285 12.4709 7.21605 12.8385L14.8226 18.4065L12.6656 20.085C11.3257 18.8235 9.56552 18.1041 7.7257 18.0659C5.88589 18.0278 4.09736 18.6737 2.7064 19.8785C1.31544 21.0833 0.421005 22.7614 0.196268 24.5878C-0.0284688 26.4143 0.43248 28.2591 1.48987 29.7652C2.54726 31.2713 4.12586 32.3315 5.92005 32.7405C7.71423 33.1495 9.59635 32.8782 11.202 31.9792C12.8077 31.0802 14.0226 29.6173 14.6117 27.874C15.2007 26.1306 15.1219 24.2306 14.3906 22.542L25.3241 14.0385C25.5356 14.7525 26.4145 17.6145 26.608 18.273C24.8151 18.7411 23.2593 19.8572 22.2413 21.4055C21.2232 22.9538 20.8152 24.8245 21.096 26.6561C21.3768 28.4878 22.3265 30.1503 23.7616 31.3226C25.1967 32.4948 27.0153 33.0935 28.8662 33.0031C30.717 32.9126 32.4686 32.1394 33.7825 30.8328C35.0965 29.5262 35.8795 27.7789 35.9804 25.9286C36.0812 24.0784 35.4927 22.2564 34.3285 20.8147C33.1643 19.373 31.5071 18.414 29.6771 18.123V18.1185ZM7.50255 30C6.61253 30 5.74251 29.7361 5.00248 29.2416C4.26246 28.7471 3.68569 28.0443 3.34509 27.2221C3.0045 26.3998 2.91538 25.495 3.08902 24.6221C3.26265 23.7492 3.69123 22.9474 4.32057 22.318C4.94991 21.6887 5.75173 21.2601 6.62464 21.0865C7.49756 20.9128 8.40236 21.0019 9.22463 21.3425C10.0469 21.6831 10.7497 22.2599 11.2442 22.9999C11.7386 23.74 12.0026 24.61 12.0026 25.5C12.0026 26.6935 11.5284 27.8381 10.6845 28.682C9.84062 29.5259 8.69602 30 7.50255 30ZM28.5026 30C27.6125 30 26.7425 29.7361 26.0025 29.2416C25.2625 28.7471 24.6857 28.0443 24.3451 27.2221C24.0045 26.3998 23.9154 25.495 24.089 24.6221C24.2626 23.7492 24.6912 22.9474 25.3206 22.318C25.9499 21.6887 26.7517 21.2601 27.6246 21.0865C28.4976 20.9128 29.4024 21.0019 30.2246 21.3425C31.0469 21.6831 31.7497 22.2599 32.2442 22.9999C32.7386 23.74 33.0025 24.61 33.0025 25.5C33.0025 26.6935 32.5284 27.8381 31.6845 28.682C30.8406 29.5259 29.696 30 28.5026 30Z" fill="#374957"/>
</svg>
