<?xml version="1.0" encoding="utf-8"?>
<!-- Generator: Adobe Illustrator 24.0.2, SVG Export Plug-In . SVG Version: 6.00 Build 0)  -->
<svg version="1.1" id="Layer_1" xmlns="http://www.w3.org/2000/svg" xmlns:xlink="http://www.w3.org/1999/xlink" x="0px" y="0px"
	 viewBox="0 0 44 44" style="enable-background:new 0 0 44 44;" xml:space="preserve">
<style type="text/css">
	.st0{fill:#374957;}
</style>
<path class="st0" d="M21.8,0.5C17.6,0.5,13.5,1.7,10,4c-3.5,2.3-6.2,5.7-7.9,9.6c-1.6,3.9-2,8.2-1.2,12.3c0.8,4.1,2.9,7.9,5.8,10.9
	c3,3,6.8,5,10.9,5.8c4.1,0.8,8.4,0.4,12.3-1.2c3.9-1.6,7.2-4.3,9.6-7.9c2.3-3.5,3.6-7.6,3.6-11.8c0-5.7-2.3-11.1-6.2-15.1
	C32.9,2.7,27.5,0.5,21.8,0.5L21.8,0.5z M21.8,39.5c-3.5,0-6.9-1-9.9-3c-2.9-2-5.2-4.7-6.5-8c-1.3-3.2-1.7-6.8-1-10.3
	s2.4-6.6,4.9-9.1c2.5-2.5,5.6-4.2,9.1-4.9c3.4-0.7,7-0.3,10.3,1c3.2,1.3,6,3.6,8,6.5c2,2.9,3,6.4,3,9.9c0,4.7-1.9,9.2-5.2,12.6
	C31.1,37.6,26.6,39.5,21.8,39.5z"/>
<path class="st0" d="M29.1,14.9c-0.3-0.3-0.8-0.5-1.3-0.5c-0.5,0-0.9,0.2-1.3,0.5L22,19.5l-4.6-4.6c-0.3-0.3-0.8-0.5-1.2-0.5
	s-0.9,0.2-1.2,0.5c-0.3,0.3-0.5,0.8-0.5,1.2c0,0.5,0.2,0.9,0.5,1.2l4.6,4.6l-4.6,4.6c-0.3,0.3-0.5,0.8-0.5,1.2
	c0,0.5,0.2,0.9,0.5,1.2c0.3,0.3,0.8,0.5,1.2,0.5c0.5,0,0.9-0.2,1.2-0.5l4.6-4.6l4.6,4.6c0.3,0.3,0.8,0.5,1.2,0.5
	c0.5,0,0.9-0.2,1.2-0.5c0.3-0.3,0.5-0.8,0.5-1.2c0-0.5-0.2-0.9-0.5-1.2L24.5,22l4.6-4.6c0.3-0.3,0.5-0.8,0.5-1.3
	C29.6,15.7,29.4,15.2,29.1,14.9z"/>
</svg>
