<svg width="157" height="140" viewBox="0 0 157 140" fill="none" xmlns="http://www.w3.org/2000/svg">
<path d="M68.5616 29.1685C66.8455 29.175 65.2009 29.7825 63.9824 30.8602L33.9562 57.6352C30.2811 60.9165 28.2168 65.3644 28.2168 70.0019C28.2168 74.6394 30.2811 79.0873 33.9562 82.3686L63.9824 109.144C65.2081 110.23 66.8661 110.84 68.5943 110.84C70.3225 110.84 71.9805 110.23 73.2062 109.144C73.8193 108.601 74.306 107.956 74.6381 107.245C74.9702 106.534 75.1412 105.772 75.1412 105.002C75.1412 104.232 74.9702 103.469 74.6381 102.759C74.306 102.048 73.8193 101.403 73.2062 100.86L43.1799 74.1436C42.5668 73.6013 42.0801 72.9561 41.748 72.2453C41.4159 71.5344 41.2449 70.772 41.2449 70.0019C41.2449 69.2318 41.4159 68.4694 41.748 67.7585C42.0801 67.0477 42.5668 66.4025 43.1799 65.8602L73.2062 39.1435C73.8193 38.6013 74.306 37.9561 74.6381 37.2452C74.9702 36.5344 75.1412 35.772 75.1412 35.0019C75.1412 34.2318 74.9702 33.4694 74.6381 32.7585C74.306 32.0477 73.8193 31.4025 73.2062 30.8602C72.5949 30.3196 71.87 29.8918 71.073 29.6015C70.276 29.3113 69.4225 29.1641 68.5616 29.1685Z" fill="white"/>
<path d="M114.35 29.1685C112.634 29.175 110.989 29.7825 109.771 30.8602L70.5209 65.8602C69.9078 66.4025 69.4211 67.0477 69.089 67.7585C68.7569 68.4694 68.5859 69.2318 68.5859 70.0019C68.5859 70.772 68.7569 71.5344 69.089 72.2453C69.4211 72.9561 69.9078 73.6013 70.5209 74.1436L109.771 109.144C110.997 110.23 112.655 110.84 114.383 110.84C116.111 110.84 117.769 110.23 118.995 109.144C119.608 108.601 120.094 107.956 120.427 107.245C120.759 106.534 120.93 105.772 120.93 105.002C120.93 104.232 120.759 103.469 120.427 102.759C120.094 102.048 119.608 101.403 118.995 100.86L84.3893 70.0019L118.995 39.1435C119.608 38.6013 120.094 37.9561 120.427 37.2452C120.759 36.5344 120.93 35.772 120.93 35.0019C120.93 34.2318 120.759 33.4694 120.427 32.7585C120.094 32.0477 119.608 31.4025 118.995 30.8602C118.383 30.3196 117.658 29.8918 116.861 29.6015C116.064 29.3113 115.211 29.1641 114.35 29.1685Z" fill="white"/>
</svg>
