<svg width="141" height="141" viewBox="0 0 141 141" fill="none" xmlns="http://www.w3.org/2000/svg">
<path d="M79.0499 29.2356C80.5838 29.2421 82.0537 29.851 83.1427 30.9312L109.98 57.7681C113.264 61.0569 115.109 65.5151 115.109 70.1633C115.109 74.8116 113.264 79.2698 109.98 82.5586L83.1427 109.395C82.0472 110.484 80.5654 111.096 79.0207 111.096C77.4761 111.096 75.9942 110.484 74.8987 109.395C74.3507 108.852 73.9157 108.205 73.6189 107.493C73.322 106.78 73.1692 106.016 73.1692 105.244C73.1692 104.472 73.322 103.708 73.6189 102.996C73.9157 102.283 74.3507 101.637 74.8987 101.093L101.736 74.3146C102.284 73.771 102.719 73.1244 103.015 72.4119C103.312 71.6994 103.465 70.9352 103.465 70.1633C103.465 69.3915 103.312 68.6273 103.015 67.9148C102.719 67.2023 102.284 66.5556 101.736 66.0121L74.8987 39.2337C74.3507 38.6901 73.9157 38.0435 73.6189 37.331C73.322 36.6185 73.1692 35.8543 73.1692 35.0824C73.1692 34.3106 73.322 33.5464 73.6189 32.8339C73.9157 32.1214 74.3507 31.4747 74.8987 30.9312C75.445 30.3893 76.0929 29.9606 76.8053 29.6696C77.5177 29.3787 78.2805 29.2312 79.0499 29.2356Z" fill="white"/>
<path d="M38.1204 29.2356C39.6542 29.2421 41.1241 29.851 42.2131 30.9312L77.294 66.0121C77.842 66.5556 78.2769 67.2023 78.5738 67.9148C78.8706 68.6273 79.0234 69.3915 79.0234 70.1633C79.0234 70.9352 78.8706 71.6994 78.5738 72.4119C78.2769 73.1244 77.842 73.771 77.294 74.3146L42.2131 109.395C41.1176 110.484 39.6358 111.096 38.0911 111.096C36.5465 111.096 35.0646 110.484 33.9691 109.395C33.4211 108.852 32.9861 108.205 32.6893 107.493C32.3925 106.78 32.2396 106.016 32.2396 105.244C32.2396 104.472 32.3925 103.708 32.6893 102.996C32.9861 102.283 33.4211 101.637 33.9691 101.093L64.8987 70.1633L33.9691 39.2337C33.4211 38.6901 32.9861 38.0435 32.6893 37.331C32.3925 36.6185 32.2396 35.8543 32.2396 35.0824C32.2396 34.3106 32.3925 33.5464 32.6893 32.8339C32.9861 32.1214 33.4211 31.4747 33.9691 30.9312C34.5154 30.3893 35.1634 29.9606 35.8757 29.6696C36.5881 29.3787 37.3509 29.2312 38.1204 29.2356Z" fill="white"/>
</svg>
