<svg width="38" height="37" viewBox="0 0 38 37" fill="none" xmlns="http://www.w3.org/2000/svg">
<g clip-path="url(#clip0_1_3829)">
<path d="M31.611 4.49225C31.2919 3.61954 30.7128 2.86568 29.9518 2.33237C29.1909 1.79906 28.2847 1.51195 27.3555 1.50977H10.4421C9.5129 1.51195 8.6067 1.79906 7.84575 2.33237C7.0848 2.86568 6.50571 3.61954 6.1866 4.49225L2.94891 13.3929C1.50932 17.3427 0.774317 21.5145 0.777353 25.7185V28.6919H3.79759V34.7324H12.8583V28.6919H24.9393V34.7324H34V28.6919H37.0202V25.7185C37.0233 21.5145 36.2883 17.3427 34.8487 13.3929L31.611 4.49225ZM9.02412 5.52367C9.13005 5.23261 9.32291 4.98117 9.57656 4.80342C9.83022 4.62567 10.1324 4.53022 10.4421 4.53001H27.3555C27.6652 4.53022 27.9674 4.62567 28.221 4.80342C28.4747 4.98117 28.6675 5.23261 28.7735 5.52367L32.0112 14.4334C32.2724 15.1537 32.4899 15.8861 32.6998 16.6185H5.09781C5.30771 15.8861 5.52517 15.1537 5.78642 14.4334L9.02412 5.52367ZM9.83808 31.7122H6.81783V28.6919H9.83808V31.7122ZM30.9798 31.7122H27.9595V28.6919H30.9798V31.7122ZM3.79759 25.6717C3.80437 23.6448 3.99747 21.6228 4.37446 19.6312H6.81783V21.1413C6.81783 21.5418 6.97694 21.9259 7.26014 22.2091C7.54334 22.4923 7.92745 22.6514 8.32796 22.6514C8.72846 22.6514 9.11257 22.4923 9.39577 22.2091C9.67897 21.9259 9.83808 21.5418 9.83808 21.1413V19.6312H27.9595V21.1413C27.9595 21.5418 28.1186 21.9259 28.4018 22.2091C28.685 22.4923 29.0691 22.6514 29.4696 22.6514C29.8701 22.6514 30.2543 22.4923 30.5375 22.2091C30.8207 21.9259 30.9798 21.5418 30.9798 21.1413V19.6312H33.4231C33.8001 21.6228 33.9932 23.6448 34 25.6717H3.79759Z" fill="#111111"/>
</g>
<defs>
<clipPath id="clip0_1_3829">
<rect width="36.2429" height="36.2429" fill="white" transform="translate(0.777344)"/>
</clipPath>
</defs>
</svg>
