<svg width="40" height="38" viewBox="0 0 40 38" fill="none" xmlns="http://www.w3.org/2000/svg">
<g clip-path="url(#clip0_17_15867)">
<path d="M37.4984 6.21289H32.3551C32.0255 6.21296 31.7033 6.30463 31.4293 6.47633C31.1553 6.64802 30.9417 6.89202 30.8156 7.17749C30.6895 7.46296 30.6565 7.77708 30.7208 8.08013C30.785 8.38318 30.9437 8.66156 31.1767 8.88008L32.9867 10.577L27.0101 16.1785C26.6925 16.463 26.2702 16.6218 25.8309 16.6218C25.3916 16.6218 24.9693 16.463 24.6517 16.1785L24.3684 15.9113C23.4161 15.0583 22.1497 14.5823 20.8326 14.5823C19.5155 14.5823 18.249 15.0583 17.2967 15.9113L8.79674 23.8801C8.48356 24.1745 8.30797 24.5735 8.3086 24.9893C8.30922 25.4051 8.48601 25.8037 8.80007 26.0973C9.11413 26.3909 9.53974 26.5555 9.98326 26.5549C10.4268 26.5543 10.8519 26.3886 11.1651 26.0941L19.6651 18.1254C19.9824 17.8405 20.4049 17.6815 20.8442 17.6815C21.2836 17.6815 21.706 17.8405 22.0234 18.1254L22.3067 18.3926C23.2594 19.2449 24.5257 19.7204 25.8426 19.7204C27.1594 19.7204 28.4257 19.2449 29.3784 18.3926L35.3551 12.7895L37.1651 14.4863C37.3989 14.7012 37.6952 14.8468 38.0168 14.9048C38.3383 14.9629 38.671 14.9308 38.9733 14.8126C39.2756 14.6944 39.534 14.4954 39.7163 14.2403C39.8986 13.9853 39.9967 13.6855 39.9984 13.3785V8.55664C39.9984 7.93504 39.735 7.3389 39.2662 6.89936C38.7973 6.45982 38.1614 6.21289 37.4984 6.21289Z" fill="white"/>
<path d="M38.3333 34.3375H8.33333C7.00725 34.3375 5.73548 33.8436 4.7978 32.9646C3.86012 32.0855 3.33333 30.8932 3.33333 29.65V1.5625C3.33333 1.1481 3.15774 0.750671 2.84518 0.457646C2.53262 0.16462 2.10869 0 1.66667 0C1.22464 0 0.800716 0.16462 0.488155 0.457646C0.175595 0.750671 0 1.1481 0 1.5625L0 29.65C0.00264643 31.7212 0.88147 33.7069 2.4437 35.1715C4.00593 36.6361 6.12401 37.46 8.33333 37.4625H38.3333C38.7754 37.4625 39.1993 37.2979 39.5118 37.0049C39.8244 36.7118 40 36.3144 40 35.9C40 35.4856 39.8244 35.0882 39.5118 34.7951C39.1993 34.5021 38.7754 34.3375 38.3333 34.3375Z" fill="white"/>
</g>
<defs>
<clipPath id="clip0_17_15867">
<rect width="40" height="37.5" fill="white"/>
</clipPath>
</defs>
</svg>
