<svg width="24" height="41" viewBox="0 0 24 41" fill="none" xmlns="http://www.w3.org/2000/svg">
<path d="M15.2187 7.16667C16.5744 7.16799 17.8743 7.70714 18.8329 8.66579C19.7916 9.62444 20.3307 10.9243 20.332 12.28C20.332 12.722 20.5076 13.146 20.8202 13.4585C21.1327 13.7711 21.5567 13.9467 21.9987 13.9467C22.4407 13.9467 22.8647 13.7711 23.1772 13.4585C23.4898 13.146 23.6654 12.722 23.6654 12.28V12.1667C23.6654 12.135 23.6654 12.1067 23.6654 12.075C23.6097 9.87122 22.6956 7.7763 21.1178 6.23676C19.5399 4.69722 17.4232 3.8348 15.2187 3.83333H13.6654V2.16667C13.6654 1.72464 13.4898 1.30072 13.1772 0.988155C12.8646 0.675595 12.4407 0.5 11.9987 0.5C11.5567 0.5 11.1327 0.675595 10.8202 0.988155C10.5076 1.30072 10.332 1.72464 10.332 2.16667V3.83333H8.7787C6.77423 3.83547 4.83585 4.55039 3.31002 5.8503C1.7842 7.1502 0.77038 8.95037 0.449786 10.929C0.129192 12.9077 0.522716 14.9359 1.56002 16.6511C2.59732 18.3663 4.21079 19.6567 6.11203 20.2917L10.332 21.7V33.8333H8.7787C7.42296 33.832 6.12314 33.2929 5.16449 32.3342C4.20584 31.3756 3.66669 30.0757 3.66536 28.72C3.66536 28.278 3.48977 27.854 3.17721 27.5415C2.86465 27.2289 2.44073 27.0533 1.9987 27.0533C1.55667 27.0533 1.13275 27.2289 0.820187 27.5415C0.507626 27.854 0.332031 28.278 0.332031 28.72V28.8333C0.332031 28.865 0.332031 28.8933 0.332031 28.925C0.387654 31.1288 1.3018 33.2237 2.87964 34.7632C4.45748 36.3028 6.57421 37.1652 8.7787 37.1667H10.332V38.8333C10.332 39.2754 10.5076 39.6993 10.8202 40.0118C11.1327 40.3244 11.5567 40.5 11.9987 40.5C12.4407 40.5 12.8646 40.3244 13.1772 40.0118C13.4898 39.6993 13.6654 39.2754 13.6654 38.8333V37.1667H15.2187C17.2232 37.1645 19.1615 36.4496 20.6874 35.1497C22.2132 33.8498 23.227 32.0496 23.5476 30.071C23.8682 28.0923 23.4747 26.0641 22.4374 24.3489C21.4001 22.6337 19.7866 21.3433 17.8854 20.7083L13.6654 19.3V7.16667H15.2187ZM16.8354 23.8683C17.9877 24.2519 18.966 25.0331 19.5949 26.0721C20.2238 27.1111 20.4624 28.34 20.2679 29.5389C20.0734 30.7377 19.4586 31.8282 18.5334 32.615C17.6083 33.4019 16.4332 33.8338 15.2187 33.8333H13.6654V22.8117L16.8354 23.8683ZM10.332 18.1883L7.16537 17.1317C6.01326 16.7482 5.03522 15.9673 4.40626 14.9286C3.7773 13.89 3.53848 12.6614 3.73253 11.4628C3.92659 10.2642 4.54086 9.1737 5.46542 8.38657C6.38997 7.59944 7.56446 7.16701 8.7787 7.16667H10.332V18.1883Z" fill="white"/>
</svg>
