<svg width="167" height="298" viewBox="0 0 167 298" fill="none" xmlns="http://www.w3.org/2000/svg">
<path d="M96.2814 28.7995C95.4575 28.8487 94.6447 28.5903 93.9999 28.0741C93.3551 27.5579 92.9241 26.8206 92.7902 26.0046C92.6563 25.1887 92.829 24.3519 93.2749 23.6561C93.7208 22.9602 94.4082 22.4546 95.2045 22.237C94.7201 21.6893 94.4207 21.0024 94.3488 20.2742C94.2769 19.546 94.4362 18.8137 94.804 18.1815C95.1718 17.5493 95.7294 17.0496 96.3973 16.7535C97.0651 16.4574 97.8093 16.38 98.5236 16.5324C98.5887 15.8156 98.8384 15.1281 99.2483 14.537C99.6582 13.946 100.214 13.4717 100.862 13.1606C101.51 12.8495 102.227 12.7122 102.944 12.7622C103.66 12.8121 104.352 13.0477 104.95 13.4457C105.79 12.8287 106.812 12.511 107.854 12.543C108.895 12.5751 109.896 12.9551 110.697 13.6226C111.402 13.5265 112.12 13.6602 112.743 14.0038C113.367 14.3475 113.864 14.883 114.161 15.5312C114.458 16.1795 114.538 16.9061 114.392 17.604C114.245 18.3018 113.878 18.9338 113.345 19.4068" fill="#263238"/>
<path d="M111.253 16.9569L110.52 16.9127C106.964 16.7276 103.47 17.8949 100.736 20.181C98.0028 22.4671 96.2319 25.7033 95.7783 29.2417C94.8955 36.0607 94.0128 43.6049 93.8539 47.2753C93.5714 54.8814 101.101 56.4469 101.101 56.4469L100.007 65.5477L118.447 65.8926L121.722 32.8414C122.79 24.9876 119.118 17.806 111.253 16.9569Z" fill="#AE7461"/>
<path d="M101.039 56.4292C104.564 56.6102 108.067 55.7721 111.129 54.0146C111.129 54.0146 108.481 59.3213 100.978 58.3042L101.039 56.4292Z" fill="#6F4439"/>
<path d="M97.7645 35.7954C97.7495 36.0778 97.844 36.355 98.0283 36.5693C98.2125 36.7835 98.4722 36.9182 98.7532 36.9451C98.8876 36.9638 99.0245 36.9558 99.1559 36.9214C99.2873 36.8871 99.4106 36.8271 99.5188 36.745C99.627 36.6628 99.718 36.5601 99.7866 36.4427C99.8552 36.3253 99.8999 36.1955 99.9184 36.0607C99.9379 35.7772 99.845 35.4975 99.6599 35.2822C99.4748 35.067 99.2124 34.9335 98.9297 34.9109C98.6585 34.8756 98.3843 34.9485 98.1662 35.114C97.9482 35.2794 97.8039 35.5242 97.7645 35.7954Z" fill="#263238"/>
<path d="M97.2259 33.0448C97.3495 33.1951 98.197 32.6202 99.371 32.6822C100.545 32.7441 101.357 33.372 101.49 33.2394C101.622 33.1067 101.437 32.9121 101.075 32.6203C100.586 32.2468 99.9941 32.0336 99.3799 32.01C98.7745 31.9752 98.1741 32.1364 97.6673 32.4699C97.2966 32.7264 97.1553 32.974 97.2259 33.0448Z" fill="#263238"/>
<path d="M108.525 36.2906C108.51 36.573 108.605 36.8503 108.789 37.0645C108.973 37.2788 109.233 37.4134 109.514 37.4404C109.648 37.4591 109.785 37.451 109.917 37.4167C110.048 37.3824 110.171 37.3224 110.28 37.2402C110.388 37.1581 110.479 37.0554 110.547 36.938C110.616 36.8205 110.661 36.6907 110.679 36.556C110.699 36.2725 110.606 35.9928 110.421 35.7775C110.235 35.5622 109.973 35.4288 109.69 35.4062C109.419 35.3708 109.145 35.4437 108.927 35.6092C108.709 35.7747 108.565 36.0195 108.525 36.2906Z" fill="#263238"/>
<path d="M108.675 33.8319C108.799 33.9823 109.655 33.4162 110.82 33.4781C111.986 33.54 112.815 34.1591 112.948 34.0265C113.08 33.8938 112.886 33.6992 112.524 33.4162C112.04 33.0397 111.45 32.8234 110.838 32.7971C110.215 32.7519 109.595 32.9135 109.072 33.257C108.746 33.5135 108.613 33.7611 108.675 33.8319Z" fill="#263238"/>
<path d="M104.014 42.2871C103.409 42.0606 102.777 41.9149 102.134 41.8537C101.843 41.8007 101.56 41.7299 101.516 41.5265C101.511 41.2138 101.596 40.9063 101.763 40.6421C102.081 39.9345 102.408 39.1916 102.752 38.4133C103.663 36.5276 104.425 34.5728 105.029 32.5672C103.968 34.3746 103.053 36.2645 102.293 38.2187C101.958 38.997 101.64 39.7488 101.34 40.4563C101.134 40.8083 101.056 41.2208 101.119 41.6238C101.157 41.7309 101.219 41.828 101.3 41.9076C101.381 41.9873 101.479 42.0475 101.587 42.0837C101.75 42.1368 101.919 42.1695 102.09 42.181C102.725 42.2962 103.371 42.3318 104.014 42.2871Z" fill="#263238"/>
<path d="M107.89 29.2859C108.022 29.5866 109.037 29.2859 110.273 29.339C111.509 29.3921 112.533 29.622 112.656 29.339C112.718 29.1975 112.506 28.9233 112.074 28.658C111.515 28.3453 110.886 28.1809 110.247 28.1804C109.628 28.1761 109.019 28.3347 108.481 28.6403C108.022 28.8702 107.828 29.1444 107.89 29.2859Z" fill="#263238"/>
<path d="M97.4025 28.2246C97.6409 28.4988 98.6119 28.2246 99.7683 28.3219C100.925 28.4192 101.905 28.6049 102.143 28.3219C102.381 28.0389 102.143 27.9151 101.684 27.6409C101.106 27.3083 100.454 27.126 99.7884 27.1105C99.1222 27.0951 98.4629 27.247 97.8704 27.5524C97.4467 27.8178 97.3054 28.0919 97.4025 28.2246Z" fill="#263238"/>
<path d="M96.6787 25.7924C96.6787 25.7924 98.912 21.1314 101.26 20.132C104.103 18.9292 105.144 22.0336 107.828 21.4233C110.511 20.8131 113.221 19.6544 115.773 21.839C118.624 24.227 117.158 25.7305 117.176 29.1179C117.238 42.8266 119.542 46.8066 120.566 40.4121C120.681 39.7134 122.658 39.2535 123.099 36.2818C123.664 32.4345 124.053 27.747 123.32 24.961C122.711 22.6085 121.475 20.9457 119.198 19.0707C115.614 16.099 110.503 15.7895 107.007 15.9664C103.511 16.1432 96.661 19.8136 96.6787 25.7924Z" fill="#263238"/>
<path d="M120.133 40.1821C120.157 39.9032 120.237 39.632 120.369 39.385C120.5 39.138 120.68 38.9202 120.898 38.745C121.116 38.5697 121.367 38.4405 121.636 38.3653C121.905 38.29 122.187 38.2702 122.464 38.3071C123.867 38.5105 125.403 39.395 125.165 42.3225C124.741 47.5141 119.63 46.0106 119.63 45.8602C119.63 45.7098 119.939 42.3578 120.133 40.1821Z" fill="#AE7461"/>
<path d="M120.919 44.0029C120.919 44.0029 121.007 44.0737 121.148 44.1533C121.354 44.2649 121.595 44.2903 121.819 44.224C122.172 44.0408 122.47 43.7661 122.681 43.4286C122.892 43.0911 123.009 42.703 123.02 42.3048C123.071 41.8598 123.02 41.409 122.87 40.987C122.836 40.8218 122.762 40.6676 122.654 40.538C122.546 40.4084 122.408 40.3075 122.252 40.2441C122.15 40.2068 122.039 40.2067 121.937 40.2439C121.835 40.2812 121.75 40.3533 121.696 40.4475C121.616 40.5801 121.643 40.6863 121.616 40.6951C121.59 40.704 121.51 40.5978 121.616 40.3856C121.654 40.2609 121.736 40.154 121.846 40.0849C121.919 40.0355 122.001 40.0014 122.088 39.9847C122.174 39.968 122.263 39.969 122.349 39.9876C122.559 40.048 122.75 40.1609 122.904 40.3156C123.059 40.4703 123.171 40.6617 123.232 40.872C123.41 41.3394 123.477 41.8423 123.426 42.3402C123.412 42.8048 123.262 43.2551 122.996 43.6355C122.729 44.0159 122.357 44.3096 121.925 44.4805C121.783 44.5095 121.635 44.5055 121.495 44.4687C121.354 44.4319 121.223 44.3634 121.113 44.2682C120.919 44.1267 120.901 44.0118 120.919 44.0029Z" fill="#6F4439"/>
<path d="M120.539 30.1084C119.872 30.5815 119.099 30.8851 118.288 30.9929C117.881 31.0342 117.472 30.9262 117.138 30.6888C116.803 30.4514 116.566 30.1007 116.47 29.7016C116.426 29.339 116.532 28.9233 116.311 28.6314C116.09 28.3396 115.517 28.3661 115.075 28.3838C113.566 28.4722 111.88 26.7122 111.544 25.2264C111.333 25.4975 111.026 25.6777 110.686 25.7303C110.347 25.7828 110 25.7039 109.717 25.5094C109.253 25.1917 108.849 24.7934 108.525 24.3331C108.332 24.0384 108.071 23.7951 107.763 23.6241C107.456 23.4531 107.111 23.3595 106.76 23.3514C106.388 23.4583 106.007 23.5235 105.621 23.5459C104.941 23.4486 104.65 22.6615 104.579 21.954C104.509 21.2464 104.465 20.477 103.908 20.079C103.326 19.8179 102.67 19.7679 102.055 19.9374C101.428 19.9994 100.625 19.8136 100.492 19.1857C100.473 19.0198 100.489 18.8517 100.537 18.692C100.586 18.5323 100.667 18.3842 100.775 18.257C101.225 17.6475 101.868 17.209 102.599 17.013C103.33 16.817 104.106 16.8752 104.8 17.178C105.096 16.3235 105.64 15.5766 106.361 15.032C107.082 14.4875 107.948 14.17 108.85 14.1197C109.751 14.0695 110.647 14.2889 111.424 14.7499C112.201 15.211 112.823 15.893 113.213 16.7093C113.788 16.2364 114.47 15.9099 115.199 15.7573C115.927 15.6048 116.682 15.6307 117.399 15.833C118.116 16.0353 118.773 16.408 119.315 16.9193C119.857 17.4306 120.268 18.0655 120.513 18.77C121.156 18.6357 121.824 18.6937 122.435 18.9366C123.046 19.1795 123.572 19.5967 123.948 20.1364C124.324 20.6762 124.533 21.3146 124.55 21.9726C124.567 22.6306 124.391 23.2792 124.044 23.8378C124.519 24.1038 124.917 24.4875 125.202 24.952C125.486 25.4166 125.647 25.9465 125.668 26.4911C125.665 26.757 125.604 27.019 125.489 27.2586C125.374 27.4983 125.208 27.7098 125.003 27.8784C124.797 28.047 124.558 28.1685 124.301 28.2344C124.044 28.3003 123.775 28.309 123.514 28.26C123.69 28.6923 123.698 29.1749 123.536 29.6128C123.375 30.0506 123.055 30.4117 122.64 30.625C122.226 30.8382 121.746 30.888 121.297 30.7645C120.848 30.6411 120.461 30.3533 120.213 29.9581" fill="#263238"/>
<path d="M104.42 18.7169C104.42 18.7169 104.42 18.717 104.42 18.8142C104.42 18.9115 104.42 18.9646 104.42 19.0884C104.473 19.446 104.583 19.7925 104.747 20.1144C105.006 20.6194 105.378 21.0581 105.833 21.3968C106.436 21.8538 107.169 22.1049 107.925 22.1132L107.845 21.9894C107.75 22.2175 107.7 22.4626 107.7 22.7102C107.7 22.9577 107.75 23.2028 107.845 23.431C108.055 23.91 108.331 24.3567 108.666 24.7576C108.83 24.983 109.016 25.1905 109.223 25.3767C109.455 25.5608 109.732 25.6798 110.026 25.7217C110.33 25.7814 110.644 25.7658 110.941 25.6764C111.238 25.5871 111.509 25.4265 111.73 25.2087L111.535 25.1468C111.582 25.69 111.741 26.2177 112.002 26.6959C112.263 27.1741 112.622 27.5923 113.054 27.9239C113.53 28.3124 114.117 28.5386 114.731 28.5695C115.308 28.569 115.881 28.4703 116.426 28.2777L116.293 28.2158C116.528 28.8588 116.923 29.4311 117.441 29.8785C117.673 30.1017 117.952 30.27 118.258 30.371C118.563 30.4721 118.887 30.5032 119.206 30.4622C119.757 30.3736 120.27 30.1241 120.68 29.7449C121.089 29.3657 121.378 28.8738 121.51 28.3307L121.396 28.3838C121.926 28.7016 122.55 28.8237 123.161 28.7287C123.619 28.6712 124.056 28.5011 124.432 28.2335C124.671 28.0703 124.881 27.8669 125.05 27.632C125.112 27.5523 125.16 27.4626 125.191 27.3667C124.975 27.6794 124.703 27.9492 124.388 28.1627C124.016 28.4038 123.593 28.5551 123.152 28.6049C122.571 28.6796 121.982 28.5515 121.484 28.2423L121.387 28.1892V28.2954C121.25 28.8005 120.971 29.2554 120.583 29.6053C120.194 29.9552 119.713 30.1852 119.198 30.2677C118.905 30.3028 118.607 30.2718 118.328 30.177C118.048 30.0821 117.793 29.9257 117.582 29.7193C117.098 29.289 116.728 28.745 116.505 28.1362V28.0389H116.408C115.885 28.2157 115.336 28.3054 114.784 28.3042C114.215 28.2827 113.669 28.0745 113.23 27.7116C112.82 27.3945 112.48 26.9944 112.234 26.5373C111.987 26.0802 111.84 25.5763 111.8 25.0583V24.8107L111.624 24.9964C111.429 25.1886 111.191 25.3308 110.93 25.4109C110.668 25.491 110.392 25.5065 110.123 25.4563C109.865 25.4104 109.621 25.3077 109.408 25.1556C109.217 24.9745 109.042 24.7761 108.887 24.5631C108.559 24.1829 108.289 23.7568 108.084 23.2983C107.989 23.0962 107.935 22.8769 107.926 22.6536C107.917 22.4303 107.952 22.2074 108.031 21.9982L108.084 21.8744H107.951C107.227 21.884 106.519 21.654 105.939 21.2199C105.489 20.9014 105.117 20.4839 104.853 19.9994C104.634 19.6009 104.488 19.1667 104.42 18.7169Z" fill="#455A64"/>
<path d="M107.545 43.4457C106.4 43.7572 105.286 44.1747 104.217 44.6927L103.087 45.2057C103.511 45.8425 103.97 46.8861 104.588 47.1957C104.948 47.368 105.346 47.444 105.743 47.4161C106.141 47.3882 106.525 47.2574 106.857 47.0365C107.292 46.5872 107.555 45.9983 107.598 45.3738C107.651 44.7311 107.633 44.0845 107.545 43.4457Z" fill="#6F4439"/>
<path d="M103.538 45.9663C103.538 45.9663 103.635 46.1255 103.82 46.3732C104.075 46.7242 104.438 46.982 104.853 47.1072C105.472 47.268 106.129 47.1857 106.689 46.8773C106.981 46.6287 107.208 46.313 107.351 45.9571C107.494 45.6013 107.548 45.2159 107.51 44.8343C107.491 44.3556 107.417 43.8807 107.289 43.4192L107.519 43.5341C106.221 44.056 105.082 44.4893 104.262 44.79C103.835 44.9754 103.392 45.1176 102.937 45.2146C103.325 44.955 103.743 44.7442 104.182 44.5866C104.977 44.2328 106.098 43.7552 107.386 43.2157L107.563 43.145L107.616 43.3307C107.764 43.8158 107.847 44.3184 107.863 44.8254C107.94 45.2265 107.907 45.6411 107.768 46.0251C107.629 46.4091 107.389 46.7483 107.073 47.0066C106.758 47.265 106.378 47.433 105.975 47.4927C105.571 47.5525 105.159 47.5018 104.782 47.346C104.327 47.194 103.944 46.8791 103.705 46.4616C103.604 46.3158 103.546 46.144 103.538 45.9663Z" fill="#263238"/>
<path d="M100.536 264.483L101.348 279.315C101.348 279.315 86.58 285.117 86.4564 287.877L115.216 287.328L114.899 264.13L100.536 264.483Z" fill="#263238"/>
<path d="M110.22 277.891C110.506 277.965 110.755 278.142 110.918 278.389C111.081 278.636 111.147 278.934 111.103 279.227C111.066 279.372 111 279.508 110.911 279.628C110.821 279.748 110.709 279.849 110.58 279.926C110.451 280.002 110.309 280.052 110.161 280.074C110.013 280.095 109.862 280.087 109.717 280.049C109.421 279.964 109.167 279.773 109.004 279.512C108.841 279.25 108.781 278.938 108.834 278.634C108.938 278.35 109.147 278.116 109.418 277.981C109.689 277.846 110.001 277.82 110.291 277.909" fill="#E0E0E0"/>
<path d="M115.216 287.328L115.093 285.002L87.5687 286.391C87.5687 286.391 86.2975 286.974 86.4564 287.877L115.216 287.328Z" fill="#455A64"/>
<path d="M100.889 279.165C100.889 279.306 101.604 279.359 102.302 279.793C102.999 280.226 103.379 280.819 103.511 280.757C103.644 280.695 103.414 279.872 102.558 279.377C101.702 278.882 100.889 279.041 100.889 279.165Z" fill="white"/>
<path d="M97.8881 280.483C97.8881 280.615 98.4707 280.845 98.9562 281.429C99.4417 282.013 99.6006 282.641 99.7418 282.632C99.8831 282.623 99.9537 281.827 99.3269 281.111C98.7002 280.394 97.8881 280.35 97.8881 280.483Z" fill="white"/>
<path d="M96.2461 284.127C96.3697 284.127 96.5551 283.455 96.1755 282.685C95.7959 281.916 95.1427 281.633 95.0809 281.748C95.0191 281.863 95.4428 282.269 95.743 282.906C96.0431 283.543 96.1049 284.118 96.2461 284.127Z" fill="white"/>
<path d="M101.075 275.769C101.137 275.901 101.772 275.698 102.567 275.769C103.361 275.839 103.988 276.043 104.058 275.928C104.129 275.813 103.52 275.309 102.584 275.282C101.649 275.256 101.004 275.627 101.075 275.769Z" fill="white"/>
<path d="M135.361 263.015L136.914 280.934L134.072 295.447C134.024 295.695 134.027 295.95 134.081 296.196C134.135 296.443 134.239 296.675 134.386 296.88C134.534 297.085 134.721 297.257 134.937 297.386C135.153 297.515 135.394 297.599 135.643 297.632C135.935 297.668 136.232 297.634 136.508 297.532C136.784 297.431 137.033 297.265 137.232 297.048C139.792 294.253 149.176 283.906 148.982 282.597C148.77 281.084 148.593 263.599 148.593 263.599L135.361 263.015Z" fill="#263238"/>
<path d="M135.643 297.623L148.884 281.376V282.137C148.926 282.794 148.736 283.445 148.346 283.976C147.295 285.382 144.303 289.221 137.214 297.039C137.009 297.263 136.752 297.433 136.465 297.534C136.179 297.636 135.873 297.666 135.573 297.623H135.643Z" fill="#455A64"/>
<g opacity="0.6">
<path d="M144.859 275.831C144.65 276.007 144.513 276.254 144.476 276.526C144.438 276.797 144.502 277.072 144.656 277.299C144.823 277.515 145.066 277.659 145.336 277.7C145.605 277.742 145.88 277.677 146.104 277.52C146.326 277.333 146.471 277.071 146.512 276.784C146.553 276.497 146.486 276.204 146.324 275.963C146.124 275.756 145.852 275.634 145.564 275.623C145.277 275.611 144.996 275.711 144.78 275.901" fill="white"/>
</g>
<path d="M139.236 289.522C138.77 288.989 138.207 288.551 137.576 288.23C136.906 288.006 136.198 287.915 135.493 287.965C135.493 287.921 135.687 287.771 136.102 287.682C136.649 287.582 137.214 287.643 137.727 287.859C138.242 288.072 138.686 288.428 139.007 288.885C139.236 289.239 139.28 289.504 139.236 289.522Z" fill="white"/>
<path d="M138.115 292.007C137.586 291.746 137.041 291.522 136.482 291.335C135.896 291.264 135.306 291.225 134.716 291.22C134.982 291.031 135.289 290.909 135.611 290.862C135.934 290.816 136.262 290.848 136.57 290.954C137.647 291.193 138.203 291.954 138.115 292.007Z" fill="white"/>
<path d="M141.416 286.294C140.631 285.828 139.811 285.426 138.962 285.091C138.076 284.867 137.172 284.716 136.261 284.64C137.178 284.323 138.178 284.348 139.077 284.71C140.02 284.942 140.85 285.503 141.416 286.294Z" fill="white"/>
<path d="M141.39 280.81C141.39 280.916 140.339 280.571 139.051 280.607C137.762 280.642 136.755 281.013 136.711 280.907C137.381 280.405 138.207 280.158 139.042 280.209C139.871 280.125 140.703 280.338 141.39 280.81Z" fill="white"/>
<path d="M141.072 275.539C140.276 275.337 139.457 275.245 138.636 275.265C137.824 275.401 137.036 275.654 136.296 276.016C136.296 276.016 136.447 275.742 136.844 275.477C137.377 275.138 137.981 274.93 138.609 274.867C139.233 274.804 139.863 274.892 140.445 275.123C140.869 275.3 141.09 275.503 141.072 275.539Z" fill="white"/>
<path d="M138.6 274.256C138.6 274.256 138.521 274.026 138.53 273.584C138.552 272.958 138.696 272.342 138.954 271.771C139.111 271.341 139.402 270.972 139.783 270.719C139.922 270.638 140.083 270.605 140.242 270.624C140.401 270.644 140.55 270.714 140.666 270.825C140.868 271.042 140.986 271.324 141.002 271.621C140.99 272.223 140.773 272.804 140.388 273.267C140.003 273.73 139.472 274.048 138.883 274.168C138.294 274.267 137.688 274.188 137.144 273.941C136.6 273.694 136.142 273.289 135.829 272.779C135.745 272.65 135.692 272.503 135.674 272.349C135.656 272.196 135.672 272.041 135.723 271.895C135.785 271.755 135.888 271.638 136.02 271.561C136.151 271.483 136.303 271.448 136.455 271.462C136.901 271.534 137.32 271.72 137.674 272.001C138.183 272.36 138.625 272.806 138.98 273.319C139.124 273.497 139.232 273.701 139.298 273.92C138.792 273.279 138.197 272.713 137.532 272.24C137.218 272.006 136.851 271.851 136.464 271.789C136.38 271.78 136.295 271.798 136.222 271.841C136.149 271.884 136.092 271.95 136.058 272.028C136.019 272.223 136.057 272.426 136.164 272.594C136.445 273.025 136.845 273.364 137.315 273.572C137.785 273.779 138.305 273.845 138.812 273.761C139.316 273.667 139.772 273.403 140.106 273.014C140.44 272.625 140.631 272.134 140.648 271.621C140.644 271.416 140.569 271.219 140.437 271.064C140.376 271.003 140.299 270.964 140.214 270.951C140.13 270.938 140.044 270.953 139.969 270.993C139.646 271.208 139.397 271.516 139.254 271.877C138.896 272.625 138.674 273.431 138.6 274.256Z" fill="white"/>
<path d="M86.2887 139.902C84.903 146.055 84.436 152.38 84.9028 158.67C85.2118 162.659 98.6384 273 98.6384 273H116.779L111.677 169.301L113.168 169.619C113.168 169.619 123.064 213.841 123.876 221.013C124.6 227.443 132.951 274.212 132.951 274.212L149.538 274.398L144.241 212.549L138.062 153.195L135.758 135.887L86.2887 139.902Z" fill="#263238"/>
<path d="M114.537 158.714C114.309 158.894 114.056 159.04 113.786 159.147C113.076 159.513 112.318 159.778 111.535 159.934C110.983 160.032 110.419 160.032 109.867 159.934C109.208 159.836 108.594 159.543 108.101 159.094C107.594 158.578 107.229 157.938 107.042 157.237C106.83 156.538 106.707 155.795 106.557 155.052C105.974 152.063 105.586 149.33 105.356 147.349C105.241 146.35 105.171 145.58 105.127 144.988C105.09 144.694 105.09 144.397 105.127 144.103C105.22 144.39 105.279 144.687 105.303 144.988C105.4 145.615 105.515 146.394 105.656 147.314C105.948 149.286 106.38 152.01 106.963 154.99C107.254 156.467 107.448 157.971 108.375 158.847C108.802 159.208 109.304 159.468 109.845 159.609C110.386 159.75 110.952 159.768 111.5 159.66C112.267 159.53 113.017 159.31 113.733 159.006C113.992 158.886 114.261 158.788 114.537 158.714Z" fill="#455A64"/>
<path d="M109.081 144.651C109.081 144.651 109.196 144.554 109.452 144.545C109.818 144.535 110.176 144.65 110.467 144.873C110.696 145.029 110.884 145.237 111.017 145.48C111.151 145.722 111.225 145.993 111.235 146.27C111.225 146.622 111.111 146.962 110.907 147.249C110.703 147.535 110.419 147.754 110.09 147.877C109.761 148.001 109.403 148.023 109.061 147.942C108.72 147.86 108.41 147.678 108.172 147.42C107.997 147.205 107.875 146.953 107.815 146.682C107.755 146.412 107.76 146.131 107.828 145.863C107.906 145.515 108.099 145.204 108.375 144.979C108.578 144.819 108.719 144.793 108.728 144.811C108.402 145.111 108.179 145.507 108.093 145.943C108.056 146.167 108.067 146.397 108.127 146.617C108.186 146.837 108.292 147.041 108.437 147.216C108.635 147.395 108.878 147.517 109.14 147.568C109.402 147.62 109.673 147.599 109.924 147.508C110.175 147.417 110.397 147.26 110.565 147.053C110.734 146.846 110.844 146.596 110.882 146.332C110.876 146.104 110.821 145.88 110.721 145.675C110.62 145.47 110.476 145.29 110.299 145.147C109.959 144.852 109.531 144.678 109.081 144.651Z" fill="#455A64"/>
<path d="M45.0643 57.4551C45.7787 59.8035 46.8959 62.0092 48.3658 63.9734L50.8463 65.7423L51.3495 73.9586L61.2539 70.244L60.3712 61.7092L59.7709 54.6338L53.5917 49.3272L45.0643 57.4551Z" fill="#AE7461"/>
<path d="M72.3501 42.2517L67.9364 52.8649L65.2881 52.3343L49.3104 67.4139L43.8815 58.4545C43.8815 58.4545 53.5917 53.3867 55.1983 49.6633C56.8049 45.9398 55.1189 46.1255 55.1189 46.1255L58.9235 39.5542L72.3501 42.2517Z" fill="#263238"/>
<path d="M65.1557 28.8702C65.1557 28.8702 59.8592 27.6232 51.12 22.1928C46.138 19.0048 41.5381 15.2538 37.4109 11.0135C36.8922 10.4696 36.1818 10.1504 35.4314 10.1239C34.681 10.0975 33.95 10.3659 33.3944 10.872C31.6289 12.5082 29.2896 16.5059 27.0298 26.4823C23.0663 44.0736 26.7473 47.178 28.2039 46.8242C29.6604 46.4705 39.1764 42.8001 45.5322 42.1898C51.888 41.5795 61.6954 42.9416 61.6954 42.9416L65.1557 28.8702Z" fill="#E0E0E0"/>
<path d="M65.1557 28.8702C65.1557 28.8702 65.1557 28.9498 65.1557 29.109C65.1557 29.2682 65.0586 29.507 64.988 29.8077C64.8379 30.4534 64.6261 31.3732 64.3436 32.5672C63.761 35.0082 62.9135 38.5371 61.8454 42.9858V43.0831H61.7395C58.95 42.7293 55.7721 42.4198 52.2588 42.2694C50.4297 42.1767 48.5971 42.1767 46.768 42.2694C44.8006 42.3891 42.8478 42.6851 40.9331 43.1538C36.9431 44.0383 32.8471 45.4976 28.5128 46.9127L28.3009 46.9746H28.0538C27.889 46.9709 27.7256 46.9441 27.5683 46.895C27.4358 46.8242 27.2858 46.7535 27.1534 46.665L26.8091 46.3643C26.4216 45.911 26.1222 45.3891 25.9263 44.8254C25.5299 43.7033 25.298 42.5296 25.2378 41.3408C25.1065 38.9275 25.213 36.5072 25.5556 34.1149C25.6262 33.5754 25.6968 33.0448 25.7763 32.5053C25.8557 31.9658 25.9528 31.444 26.0499 30.9221C26.2177 29.8608 26.4295 28.8172 26.659 27.7912C27.0739 25.7128 27.5418 23.6963 28.1332 21.724C28.6635 19.7845 29.312 17.8794 30.0753 16.0194C30.7418 14.2165 31.7023 12.5368 32.9177 11.0489C33.2377 10.6769 33.6316 10.3757 34.0741 10.1645C34.5198 9.96422 35.0084 9.87908 35.4953 9.91684C35.972 9.94642 36.4349 10.0889 36.846 10.3325C37.2321 10.5779 37.5826 10.8755 37.8876 11.2169C39.1323 12.4817 40.3858 13.6668 41.6216 14.7547C43.9265 16.8082 46.3494 18.7249 48.8778 20.4947C52.5666 23.041 56.475 25.2521 60.5566 27.1014C62.0043 27.7382 63.2048 28.1715 63.9463 28.4457L64.8291 28.7376L65.1381 28.8349C65.0299 28.8285 64.923 28.8077 64.8203 28.773C64.6084 28.7199 64.2994 28.6403 63.9375 28.5076C63.143 28.26 61.9778 27.8531 60.5213 27.234C56.4114 25.4454 52.4777 23.2749 48.7719 20.7512C46.2221 18.9938 43.7812 17.0829 41.4627 15.0289C40.2181 13.9233 38.9557 12.7382 37.7022 11.4911C37.417 11.1533 37.0873 10.8558 36.7224 10.6067C36.1535 10.2728 35.4836 10.1552 34.8353 10.2753C34.1869 10.3955 33.6034 10.7454 33.1914 11.2612C31.9509 12.7193 30.9633 14.3755 30.2695 16.1609C29.528 17.9994 28.8972 19.8807 28.3804 21.7948C27.8331 23.7582 27.3299 25.7747 26.915 27.8355C26.6943 28.8614 26.4825 29.905 26.3059 30.9575C26.2177 31.4793 26.1206 32.01 26.0411 32.5406C25.9617 33.0713 25.8557 33.6373 25.8557 34.1768C25.5138 36.5455 25.4073 38.9422 25.5379 41.3319C25.5901 42.4848 25.8132 43.6234 26.2 44.7105C26.384 45.2362 26.6656 45.7223 27.0298 46.1432L27.3299 46.3997C27.4358 46.4705 27.5594 46.5235 27.6654 46.5854C27.9023 46.6698 28.1611 46.6698 28.398 46.5854C32.6882 45.1792 36.8283 43.7464 40.836 42.8354C42.7701 42.3743 44.7398 42.0784 46.7239 41.951C48.6395 41.8537 50.4844 41.8891 52.2411 41.951C55.7721 42.1191 58.95 42.4551 61.7483 42.8354L61.6247 42.9151C62.7281 38.4929 63.6109 35.0082 64.22 32.5937C64.529 31.3909 64.7585 30.4711 64.9262 29.8254L65.1116 29.1002C65.1202 29.0225 65.1349 28.9456 65.1557 28.8702Z" fill="#263238"/>
<path d="M79.6328 42.7735L76.1989 42.4374L77.9203 37.8561L80.8687 39.2181L79.6328 42.7735Z" fill="#E4D256"/>
<path d="M78.3528 37.3785L77.011 40.9162L76.2784 42.8708C75.7937 44.157 74.835 45.2078 73.6 45.8068C72.3649 46.4057 70.9476 46.5072 69.6401 46.0902L55.6044 43.0742L60.3094 25.3856L74.5923 29.8077C76.0604 30.3567 77.2655 31.444 77.9637 32.8496C78.6619 34.2552 78.801 35.874 78.3528 37.3785Z" fill="#E4D256"/>
<g opacity="0.3">
<path d="M28.2303 27.3136C26.1735 36.6886 26.2088 44.6574 28.2921 45.1173C30.3754 45.5772 33.7298 38.3425 35.7866 28.9675C37.8434 19.5925 37.8081 11.6238 35.716 11.1639C33.6239 10.704 30.2694 17.9386 28.2303 27.3136Z" fill="black"/>
</g>
<path d="M36.793 23.4752C36.793 23.4752 31.7436 21.6444 30.6137 28.2069C29.4838 34.7694 34.3566 34.7783 34.3566 34.7783C35.6981 31.145 36.5184 27.3394 36.793 23.4752Z" fill="white"/>
<path d="M63.4343 32.0542C65.2006 32.7129 67.0046 33.2652 68.8368 33.7081C70.6441 34.2695 72.4835 34.7214 74.3451 35.0613C72.5777 34.3947 70.7704 33.8394 68.9339 33.3985C67.1299 32.8379 65.2933 32.3889 63.4343 32.0542Z" fill="#263238"/>
<path d="M62.9312 33.9999C64.7002 34.6594 66.5072 35.2117 68.3424 35.6538C70.147 36.2098 71.9835 36.6557 73.8419 36.9893C72.075 36.3211 70.2677 35.7658 68.4307 35.3266C66.6267 34.7708 64.79 34.3278 62.9312 33.9999Z" fill="#263238"/>
<path d="M62.4103 35.9457C64.1772 36.6139 65.9846 37.1692 67.8216 37.6084C69.6256 38.1642 71.4623 38.6073 73.3211 38.9351C71.5515 38.2772 69.7446 37.725 67.9099 37.2812C66.1053 36.7253 64.2687 36.2793 62.4103 35.9457Z" fill="#263238"/>
<path d="M61.8984 37.8826C63.6768 38.5522 65.496 39.1076 67.3449 39.5453C69.149 40.1011 70.9857 40.5442 72.8445 40.872C71.0754 40.2125 69.2684 39.6602 67.4332 39.2181C65.617 38.6608 63.7687 38.2148 61.8984 37.8826Z" fill="#263238"/>
<path d="M57.1403 54.1473L55.2247 49.8578C55.1094 49.5872 54.938 49.3442 54.7219 49.1449C54.5058 48.9456 54.2499 48.7946 53.9712 48.7018C53.6925 48.609 53.3973 48.5765 53.1051 48.6066C52.8129 48.6366 52.5304 48.7285 52.2764 48.8761C52.0194 49.0287 51.8124 49.253 51.6807 49.5216C51.549 49.7902 51.4983 50.0915 51.5349 50.3885C51.5349 50.3885 48.4364 49.5837 48.9484 52.5023C48.9484 52.5023 46.6797 52.405 46.8916 54.4834C46.8916 54.4834 44.1198 54.0324 44.4817 56.7211C44.8436 59.4097 48.2952 60.6214 49.1867 60.2588C49.1867 60.2588 50.1313 59.9404 49.6369 58.4368C49.6369 58.4368 52.0733 61.3466 53.4504 60.6391C54.8275 59.9315 53.5299 58.6403 53.5299 58.6403C53.5299 58.6403 54.4744 59.5247 55.2954 59.0736C56.1163 58.6226 54.9334 55.6951 54.9334 55.6951C55.4624 55.9115 56.0513 55.9304 56.593 55.7482C57.3345 55.4032 57.1403 54.1473 57.1403 54.1473Z" fill="#AE7461"/>
<path d="M49.637 58.428C49.5399 58.4722 49.0014 57.5436 48.1539 56.5619C47.5818 55.9914 47.1155 55.3236 46.7769 54.5896C47.3985 55.108 47.953 55.7022 48.4276 56.3584C48.9968 56.9364 49.4125 57.6478 49.637 58.428Z" fill="#6F4439"/>
<path d="M49.072 52.3873C50.0931 53.2482 50.985 54.252 51.7202 55.3679C52.5439 56.4163 53.2128 57.578 53.7064 58.8172C53.6093 58.8702 52.7089 57.349 51.4289 55.5801C50.1489 53.8113 48.9925 52.4581 49.072 52.3873Z" fill="#6F4439"/>
<path d="M55.1365 55.9958C54.7144 54.9595 54.2249 53.952 53.6711 52.9799C53.0145 52.0751 52.2947 51.218 51.5172 50.415C52.5362 50.9494 53.386 51.758 53.9713 52.7499C54.6528 53.7026 55.0563 54.8265 55.1365 55.9958Z" fill="#6F4439"/>
<path d="M64.4407 54.1297L63.2137 52.9003C63.0109 52.7005 62.7629 52.5527 62.4909 52.4696C62.2188 52.3864 61.9308 52.3703 61.6512 52.4227C60.14 52.7154 58.6738 53.206 57.2904 53.882C56.6548 54.4215 57.0962 55.757 59.515 55.6509C61.9337 55.5448 59.7621 55.6509 59.7621 55.6509C59.7621 55.6509 54.6069 57.977 56.1605 62.5583L60.1505 62.2576C60.1505 62.2576 64.4937 56.7741 64.785 55.7924C64.8714 55.5086 64.8852 55.2075 64.825 54.9169C64.7648 54.6264 64.6327 54.3556 64.4407 54.1297Z" fill="#AE7461"/>
<path d="M60.7067 55.4033C60.7067 55.4652 60.1682 55.5625 59.3914 55.9516C58.3732 56.4599 57.5126 57.2365 56.902 58.1981C56.3159 59.1751 56.0105 60.2953 56.0193 61.4351C56.0193 62.3195 56.1693 62.8502 56.1075 62.859C55.8745 62.4243 55.756 61.9373 55.7633 61.4439C55.6841 60.2406 55.9818 59.0424 56.6147 58.0166C57.2477 56.9908 58.1844 56.1886 59.2943 55.7217C59.7324 55.5027 60.2171 55.3934 60.7067 55.4033Z" fill="#6F4439"/>
<path d="M19.6765 32.7087C19.6765 32.7617 16.9046 33.9557 13.4266 35.362C9.94857 36.7682 7.10612 37.8826 7.08846 37.8207C7.07081 37.7588 9.86029 36.5736 13.3383 35.1674C16.8164 33.7611 19.6765 32.6468 19.6765 32.7087Z" fill="#263238"/>
<path d="M20.4886 26.0135C20.4886 26.0754 15.8895 25.6863 10.2399 25.1291C4.59029 24.5719 0 24.112 0 24.0501C0 23.9882 4.59912 24.3685 10.2575 24.9345C15.916 25.5005 20.4974 25.9516 20.4886 26.0135Z" fill="#263238"/>
<path d="M21.1418 19.1415C19.8484 18.2203 18.6022 17.2344 17.4078 16.1875C15.3863 14.4982 13.7797 13.1008 13.815 13.0477C13.8503 12.9947 15.5276 14.3302 17.5491 16.0106C19.5705 17.691 21.1771 19.1415 21.1418 19.1415Z" fill="#263238"/>
<path d="M36.7577 12.119C36.7868 12.2263 36.8074 12.3358 36.8195 12.4463C36.8195 12.7116 36.8901 13.03 36.943 13.4103C36.996 13.7906 37.049 14.2948 37.0843 14.9404C37.1196 15.586 37.1814 16.214 37.1902 16.9657C37.2381 18.7357 37.1939 20.507 37.0578 22.2723C36.8917 24.4255 36.5969 26.5667 36.1751 28.6845C35.7279 30.7979 35.1561 32.883 34.4625 34.9286C33.8829 36.5942 33.22 38.2295 32.4763 39.8284C32.1674 40.5094 31.8408 41.1108 31.5936 41.5972C31.3464 42.0837 31.0728 42.5789 30.8609 42.9416L30.3666 43.7729C30.3162 43.8737 30.2507 43.9662 30.1724 44.0471C30.2056 43.9396 30.25 43.8358 30.3048 43.7376C30.4195 43.5076 30.5608 43.2157 30.7373 42.8531C30.9139 42.4905 31.1699 42.0217 31.417 41.4822C31.6642 40.9427 31.982 40.3413 32.2998 39.6515C32.9177 38.2806 33.5621 36.6267 34.2065 34.7517C34.8707 32.718 35.4305 30.6517 35.8837 28.5607C36.3097 26.4594 36.6221 24.3366 36.8195 22.2016C36.9784 20.2293 37.0402 18.4428 37.0225 16.895C37.0225 16.1521 37.0225 15.471 36.9695 14.8785C36.9166 14.2859 36.9254 13.7729 36.8901 13.3484C36.8548 12.9239 36.8901 12.6497 36.8371 12.3844C36.7842 12.1191 36.74 12.119 36.7577 12.119Z" fill="#263238"/>
<path d="M61.713 68.2275L62.5339 71.951L64.7408 84.2093L77.1699 75.3649C77.1699 75.3649 80.4802 70.9428 83.4109 67.405C85.5031 64.8667 89.1929 65.1585 89.1929 65.1585L83.8347 93.5135C83.8347 93.5135 68.4748 101.473 64.9438 102.358C61.4128 103.242 53.5917 106.382 52.7178 97.5554C51.8438 88.7287 50.4491 70.757 50.4491 70.757L61.713 68.2275Z" fill="#E0E0E0"/>
<path d="M133.736 63.8319L121.784 61.3997L119.507 55.6332L105.144 63.1774L100.527 59.3124L99.1239 63.5665L87.3392 65.132L83.8082 89.0117V106.205L83.2344 133.446C83.203 135.043 83.7169 136.603 84.6909 137.868L86.2622 139.902L101.472 142.723C103.326 142.881 105.193 142.795 107.024 142.467L135.758 135.887C137.523 130.863 135.908 128.97 135.219 123.699L135.299 92.178L133.736 63.8319Z" fill="#E0E0E0"/>
<path d="M102.055 69.112L104.041 72.3313L106.769 72.0837L108.252 69.165L106.389 65.7776H104.2L102.055 69.112Z" fill="#E4D256"/>
<path d="M104.041 71.6503L96.5198 130.509L101.463 140.786L109.823 129.952L106.874 71.6503H104.041Z" fill="#E4D256"/>
<path d="M84.4967 71.9952C84.5329 72.4603 84.5329 72.9276 84.4967 73.3926C84.4967 74.3744 84.4437 75.6568 84.4084 77.2046C84.329 80.4239 84.2319 84.8726 84.2142 89.7812C84.1966 94.6898 84.2142 99.1474 84.2848 102.367C84.2848 103.914 84.2848 105.197 84.3378 106.179C84.3757 106.644 84.3757 107.111 84.3378 107.576C84.2487 107.118 84.2014 106.654 84.1966 106.187C84.1259 105.303 84.0642 103.985 83.9935 102.376C83.8611 99.1562 83.764 94.6987 83.7905 89.7812C83.817 84.8637 83.9582 80.4151 84.1171 77.1957C84.2054 75.586 84.2848 74.2859 84.3555 73.3838C84.3597 72.9176 84.407 72.4527 84.4967 71.9952Z" fill="#263238"/>
<path d="M121.678 61.7093C121.465 61.9388 121.221 62.1381 120.954 62.3018C120.478 62.6556 119.771 63.1863 118.889 63.7611C117.123 64.9817 114.687 66.6355 111.977 68.4486L108.834 70.5447L108.613 70.6951L108.516 70.4475C107.634 68.316 106.618 66.5736 106.027 65.2824C105.652 64.6174 105.356 63.911 105.144 63.1774C105.524 63.8107 105.872 64.4631 106.186 65.132C106.839 66.3791 107.89 68.0949 108.834 70.2529L108.516 70.1556L111.685 68.033C114.395 66.2641 116.876 64.6102 118.677 63.4604C119.56 62.8944 120.31 62.4345 120.822 62.1249C121.088 61.9496 121.376 61.8098 121.678 61.7093Z" fill="#263238"/>
<path d="M105.144 63.1774C105.057 63.8597 104.851 64.5214 104.535 65.132C103.866 66.6379 103.056 68.0771 102.116 69.4304L101.887 69.7665L101.64 70.1202L101.481 69.7222C100.81 68.033 100.157 66.5383 99.7153 65.4593C99.4148 64.8957 99.1723 64.3031 98.9915 63.6904C99.3981 64.1853 99.7365 64.7326 99.9978 65.3178C100.72 66.6911 101.369 68.1023 101.94 69.5453L101.543 69.4923L101.772 69.165C102.692 67.8249 103.527 66.4276 104.27 64.9817C104.809 63.885 105.082 63.1597 105.144 63.1774Z" fill="#263238"/>
<path d="M130.258 92.1338C130.258 92.1338 163.467 58.1361 165.339 53.3248C167.21 48.5135 167.272 18.0978 166.637 14.1886L154.41 17.7883L151.303 45.8956L127.469 66.6621L130.258 92.1338Z" fill="#E0E0E0"/>
<path d="M163.565 5.15857C163.565 4.90208 163.335 1.92153 162.505 1.31127C162.217 1.13961 161.891 1.04032 161.556 1.02184C161.221 1.00336 160.886 1.06625 160.581 1.20515C160.114 0.608613 159.461 0.185307 158.727 0.00231625C157.966 -0.0249185 157.215 0.188591 156.582 0.612578L155.62 0.30302C155.293 0.150545 154.931 0.0913419 154.572 0.131912C154.214 0.172483 153.874 0.311263 153.589 0.532982C153.148 1.13584 152.531 1.58694 151.824 1.82425C150.773 2.09842 150.279 5.36199 149.935 6.94513C149.591 8.52826 149.105 10.6332 151.047 12.3048C153.082 13.9673 155.216 15.5032 157.438 16.9038L166.266 15.3472C166.266 15.3472 167.148 13.9675 166.416 10.8543C165.861 8.78166 164.891 6.84378 163.565 5.15857Z" fill="#AE7461"/>
<path d="M160.572 1.20517C160.472 1.7891 160.433 2.38201 160.457 2.97404C160.457 4.06189 160.457 5.57427 160.457 7.22816C160.457 7.44042 160.457 7.64384 160.457 7.84726C160.454 7.90913 160.454 7.97113 160.457 8.033C160.477 8.11229 160.517 8.18528 160.572 8.24525C160.661 8.34352 160.778 8.41155 160.907 8.43983C161.305 8.53835 161.72 8.53835 162.117 8.43983C162.476 8.35153 162.79 8.13441 163 7.82958C163.187 7.56309 163.322 7.2628 163.397 6.94515C163.512 6.52163 163.569 6.08409 163.565 5.64503C163.565 5.33548 163.565 5.16743 163.503 5.16743C163.441 5.16743 163.503 5.85729 163.15 6.86554C163.084 7.14948 162.944 7.41069 162.744 7.62216C162.543 7.83362 162.29 7.98767 162.011 8.06837C161.671 8.14315 161.318 8.14315 160.978 8.06837C160.913 8.05423 160.855 8.02022 160.81 7.97108C160.81 7.97108 160.81 7.97109 160.81 7.81189C160.81 7.65269 160.81 7.40505 160.81 7.19279C160.81 5.5389 160.749 4.03536 160.704 2.9475C160.723 2.36365 160.679 1.77948 160.572 1.20517Z" fill="#6F4439"/>
<path d="M156.573 0.612579C156.543 1.10744 156.579 1.6041 156.679 2.08958C156.794 2.97402 156.97 4.25644 157.191 5.62732V5.75114C157.192 6.46287 157.38 7.16174 157.738 7.77648C157.899 8.03396 158.123 8.2457 158.389 8.39131C158.655 8.53691 158.954 8.61148 159.257 8.60785C159.65 8.58453 160.028 8.45292 160.351 8.22755C160.572 8.0772 160.669 7.96222 160.651 7.93569C160.634 7.90916 160.51 7.9976 160.281 8.10373C159.962 8.25928 159.612 8.34088 159.257 8.34252C159.005 8.33254 158.76 8.25927 158.544 8.12944C158.328 7.99961 158.148 7.81739 158.021 7.5996C157.722 7.02598 157.565 6.3892 157.562 5.7423V5.5654C157.332 4.17684 157.112 2.9121 156.935 2.02767C156.871 1.54331 156.749 1.06831 156.573 0.612579Z" fill="#6F4439"/>
<path d="M153.589 0.568359C153.781 1.28231 154.035 1.97785 154.349 2.64678V2.59371C154.349 3.77885 154.278 5.37968 154.269 7.13085C154.269 7.52001 154.269 7.90031 154.269 8.26293V8.34252L154.322 8.3956C154.621 8.67691 154.968 8.90165 155.346 9.05893C155.71 9.2208 156.12 9.24898 156.503 9.13852C156.675 9.08645 156.835 8.99683 156.969 8.87606C157.103 8.75529 157.209 8.60634 157.279 8.43981C157.396 8.15786 157.467 7.85945 157.491 7.55538C157.544 7.15621 157.544 6.75172 157.491 6.35255C157.491 6.07837 157.412 5.92802 157.385 5.92802C157.359 5.92802 157.429 6.54713 157.288 7.52001C157.209 7.97991 157.032 8.64323 156.405 8.78474C156.068 8.82886 155.724 8.78902 155.406 8.66871C155.087 8.5484 154.803 8.35131 154.578 8.09488L154.631 8.22756C154.631 7.8561 154.631 7.47578 154.631 7.08663C154.631 5.31776 154.631 3.73464 154.631 2.5495V2.48758C154.338 1.81973 153.99 1.17773 153.589 0.568359Z" fill="#6F4439"/>
<path d="M157.438 16.9038C157.438 16.9038 151.144 12.4817 151.047 12.3048C150.95 12.1279 150.164 5.22932 150.906 3.6904C151.647 2.15149 152.671 0.249958 152.671 0.249958C152.671 0.249958 154.437 0.0553832 154.508 2.77944C154.578 5.50349 154.463 8.32484 154.463 8.32484L156.6 9.86375C156.6 9.86375 162.435 9.35962 163.971 14.5512" fill="#AE7461"/>
<path d="M163.953 14.5513C163.908 14.3276 163.843 14.1085 163.759 13.8968C163.678 13.6376 163.569 13.3884 163.432 13.1539C163.26 12.8213 163.059 12.5046 162.832 12.2075C162.181 11.4378 161.358 10.8319 160.431 10.4387C159.214 9.91697 157.895 9.67809 156.573 9.73995H156.679L154.543 8.20104L154.613 8.34254C154.666 7.03358 154.702 5.63618 154.693 4.17687C154.71 3.42623 154.672 2.67532 154.578 1.9304C154.506 1.5276 154.35 1.14471 154.119 0.807178C153.865 0.455988 153.491 0.210488 153.069 0.117321C152.922 0.0951296 152.774 0.0951296 152.627 0.117321H152.53L152.486 0.205757L151.542 2.08076C151.383 2.39032 151.233 2.69987 151.074 2.9652C150.906 3.26505 150.764 3.57869 150.65 3.9027C150.503 4.55566 150.432 5.22339 150.438 5.89267C150.438 6.53831 150.438 7.16625 150.438 7.78536C150.491 9.00588 150.588 10.1645 150.712 11.2435L150.818 12.0483V12.2517C150.815 12.293 150.815 12.3343 150.818 12.3756L150.915 12.4817L151.224 12.7293L152.398 13.6138C153.907 14.6751 155.134 15.5153 155.991 16.0902L156.979 16.7358C157.09 16.817 157.209 16.888 157.332 16.9481C157.332 16.9481 157.235 16.842 157.023 16.6828L156.07 15.9752L152.539 13.4015L151.391 12.5171L151.109 12.2871H151.038C151.127 12.2871 151.1 12.2871 151.1 12.2871V12.2341V12.0572L151.012 11.27C150.897 10.191 150.818 9.0324 150.765 7.82073C150.765 7.21047 150.765 6.59137 150.765 5.95457C150.757 5.31781 150.825 4.68237 150.968 4.06189C151.079 3.75492 151.217 3.45885 151.383 3.17745L151.842 2.29302L152.786 0.435718L152.645 0.524153C152.751 0.51254 152.857 0.51254 152.963 0.524153C153.294 0.628727 153.587 0.828816 153.805 1.09939C154.023 1.36997 154.157 1.69902 154.19 2.04538C154.281 2.76977 154.32 3.49992 154.305 4.22993C154.305 5.6804 154.305 7.06897 154.252 8.36909V8.46636L154.331 8.51944L156.476 10.0407H156.538C157.813 9.97156 159.087 10.1829 160.272 10.6598C161.175 11.0376 161.98 11.6151 162.629 12.349C163.164 13.0224 163.609 13.7627 163.953 14.5513Z" fill="#6F4439"/>
<path d="M132.421 87.7823C132.421 87.7823 132.245 87.6055 132.006 87.234C131.666 86.7084 131.371 86.1552 131.124 85.5801C129.417 81.7327 129.234 77.379 130.612 73.4015C130.814 72.807 131.065 72.2302 131.362 71.6768C131.454 71.4638 131.579 71.2668 131.733 71.0931C131.803 71.0931 131.371 71.9775 130.921 73.5076C129.748 77.4345 129.925 81.6422 131.424 85.4563C131.98 86.9067 132.492 87.747 132.421 87.7823Z" fill="#263238"/>
</svg>
