<svg width="36" height="36" viewBox="0 0 36 36" fill="none" xmlns="http://www.w3.org/2000/svg">
<g clip-path="url(#clip0_1_3834)">
<path d="M32.106 10.842C31.6875 10.2721 31.1409 9.80849 30.5104 9.48854C29.8799 9.16859 29.183 9.00125 28.476 9H7.51797C6.81092 9.00125 6.11405 9.16859 5.48353 9.48854C4.853 9.80849 4.30647 10.2721 3.88797 10.842L0.817471 15.0315C0.171375 15.9103 -0.132601 16.9942 -0.0376364 18.0808C0.0573278 19.1674 0.544732 20.1821 1.33347 20.9355L17.997 35.8965L34.716 20.8845C35.4849 20.1287 35.955 19.1205 36.0396 18.0456C36.1242 16.9707 35.8177 15.9014 35.1765 15.0345L32.106 10.842ZM10.9605 19.5L14.418 28.65L4.22097 19.5H10.9605ZM21.8265 19.5L17.997 29.6355L14.1675 19.5H21.8265ZM14.2125 16.5L16.0125 12H19.9815L21.7815 16.5H14.2125ZM25.0335 19.5H31.77L21.57 28.65L25.0335 19.5ZM29.6835 12.6135L32.535 16.5H25.0125L23.2125 12H28.476C28.7118 11.9999 28.9443 12.0554 29.1546 12.162C29.3649 12.2686 29.5471 12.4233 29.6865 12.6135H29.6835ZM6.30447 12.6135C6.44412 12.4229 6.62683 12.268 6.83771 12.1613C7.04859 12.0547 7.28167 11.9995 7.51797 12H12.7815L10.9815 16.5H3.45897L6.30447 12.6135Z" fill="#374957"/>
<path d="M19.5 0H16.5V6H19.5V0Z" fill="#374957"/>
<path d="M27.2341 0.855733L24.2344 5.57031L26.7664 7.18131L29.7661 2.46673L27.2341 0.855733Z" fill="#374957"/>
<path d="M8.76511 0.8675L6.23438 2.47852L9.23409 7.19075L11.7648 5.57973L8.76511 0.8675Z" fill="#374957"/>
</g>
<defs>
<clipPath id="clip0_1_3834">
<rect width="36" height="36" fill="white"/>
</clipPath>
</defs>
</svg>
