<svg width="28" height="28" viewBox="0 0 28 28" fill="none" xmlns="http://www.w3.org/2000/svg">
<path fill-rule="evenodd" clip-rule="evenodd" d="M27.44 14.3182C27.44 13.3254 27.3509 12.3709 27.1855 11.4545H14V16.87H21.5345C21.21 18.62 20.2236 20.1027 18.7409 21.0954V24.6082H23.2655C25.9127 22.1709 27.44 18.5818 27.44 14.3182Z" fill="#4285F4"/>
<path fill-rule="evenodd" clip-rule="evenodd" d="M13.9999 28C17.7799 28 20.949 26.7463 23.2654 24.6082L18.7408 21.0954C17.4872 21.9354 15.8836 22.4318 13.9999 22.4318C10.3536 22.4318 7.2672 19.9691 6.16629 16.66H1.48901V20.2872C3.79265 24.8627 8.5272 28 13.9999 28Z" fill="#34A853"/>
<path fill-rule="evenodd" clip-rule="evenodd" d="M6.16637 16.66C5.88637 15.82 5.72727 14.9227 5.72727 14C5.72727 13.0773 5.88637 12.18 6.16637 11.34V7.71271H1.48909C0.540909 9.60271 0 11.7409 0 14C0 16.2591 0.540909 18.3973 1.48909 20.2873L6.16637 16.66Z" fill="#FBBC05"/>
<path fill-rule="evenodd" clip-rule="evenodd" d="M13.9999 5.56818C16.0554 5.56818 17.9008 6.27455 19.3517 7.66182L23.3672 3.64637C20.9427 1.38727 17.7736 0 13.9999 0C8.5272 0 3.79265 3.13727 1.48901 7.71273L6.16629 11.34C7.2672 8.03091 10.3536 5.56818 13.9999 5.56818Z" fill="#EA4335"/>
</svg>
