<svg width="21" height="22" viewBox="0 0 21 22" fill="none" xmlns="http://www.w3.org/2000/svg">
<g clip-path="url(#clip0_53_11005)">
<mask id="path-1-inside-1_53_11005" fill="white">
<path d="M19.1229 4.39673L7.37222 16.1466C7.29321 16.2259 7.19933 16.2889 7.09594 16.3318C6.99256 16.3747 6.88171 16.3968 6.76976 16.3968C6.65781 16.3968 6.54696 16.3747 6.44358 16.3318C6.34019 16.2889 6.2463 16.2259 6.1673 16.1466L1.62313 11.5982C1.54413 11.5189 1.45024 11.4559 1.34685 11.413C1.24347 11.37 1.13262 11.3479 1.02067 11.3479C0.908722 11.3479 0.797875 11.37 0.694489 11.413C0.591104 11.4559 0.497216 11.5189 0.418212 11.5982C0.338896 11.6772 0.275961 11.7711 0.233018 11.8745C0.190075 11.9778 0.167969 12.0887 0.167969 12.2006C0.167969 12.3126 0.190075 12.4234 0.233018 12.5268C0.275961 12.6302 0.338896 12.7241 0.418212 12.8031L4.96408 17.3481C5.44362 17.8268 6.09349 18.0956 6.77103 18.0956C7.44858 18.0956 8.09844 17.8268 8.57799 17.3481L20.3279 5.6008C20.407 5.52181 20.4699 5.42797 20.5127 5.32467C20.5556 5.22136 20.5777 5.11061 20.5777 4.99876C20.5777 4.88691 20.5556 4.77616 20.5127 4.67286C20.4699 4.56955 20.407 4.47572 20.3279 4.39673C20.2489 4.31741 20.155 4.25448 20.0516 4.21153C19.9482 4.16859 19.8374 4.14648 19.7254 4.14648C19.6135 4.14648 19.5026 4.16859 19.3992 4.21153C19.2958 4.25448 19.2019 4.31741 19.1229 4.39673Z"/>
</mask>
<path d="M19.1229 4.39673L7.37222 16.1466C7.29321 16.2259 7.19933 16.2889 7.09594 16.3318C6.99256 16.3747 6.88171 16.3968 6.76976 16.3968C6.65781 16.3968 6.54696 16.3747 6.44358 16.3318C6.34019 16.2889 6.2463 16.2259 6.1673 16.1466L1.62313 11.5982C1.54413 11.5189 1.45024 11.4559 1.34685 11.413C1.24347 11.37 1.13262 11.3479 1.02067 11.3479C0.908722 11.3479 0.797875 11.37 0.694489 11.413C0.591104 11.4559 0.497216 11.5189 0.418212 11.5982C0.338896 11.6772 0.275961 11.7711 0.233018 11.8745C0.190075 11.9778 0.167969 12.0887 0.167969 12.2006C0.167969 12.3126 0.190075 12.4234 0.233018 12.5268C0.275961 12.6302 0.338896 12.7241 0.418212 12.8031L4.96408 17.3481C5.44362 17.8268 6.09349 18.0956 6.77103 18.0956C7.44858 18.0956 8.09844 17.8268 8.57799 17.3481L20.3279 5.6008C20.407 5.52181 20.4699 5.42797 20.5127 5.32467C20.5556 5.22136 20.5777 5.11061 20.5777 4.99876C20.5777 4.88691 20.5556 4.77616 20.5127 4.67286C20.4699 4.56955 20.407 4.47572 20.3279 4.39673C20.2489 4.31741 20.155 4.25448 20.0516 4.21153C19.9482 4.16859 19.8374 4.14648 19.7254 4.14648C19.6135 4.14648 19.5026 4.16859 19.3992 4.21153C19.2958 4.25448 19.2019 4.31741 19.1229 4.39673Z" fill="#82A435"/>
<path d="M19.1229 4.39673L20.3254 5.59932L20.3279 5.5969L19.1229 4.39673ZM7.37222 16.1466L6.16971 14.944L6.1673 14.9464L7.37222 16.1466ZM6.1673 16.1466L7.37222 14.9464L7.37041 14.9446L6.1673 16.1466ZM1.62313 11.5982L0.418211 12.7984L0.420019 12.8002L1.62313 11.5982ZM0.167969 12.2006H1.86863H0.167969ZM0.418212 12.8031L1.62065 11.6004L1.61839 11.5982L0.418212 12.8031ZM4.96408 17.3481L3.76164 18.5508L3.76265 18.5518L4.96408 17.3481ZM8.57799 17.3481L9.77942 18.5518L9.78041 18.5508L8.57799 17.3481ZM20.3279 5.6008L19.1268 4.39673L19.1254 4.39812L20.3279 5.6008ZM20.3279 4.39673L19.1229 5.59691L19.1268 5.6008L20.3279 4.39673ZM19.7254 4.14648V2.44582V4.14648ZM17.9204 3.19413L6.16971 14.944L8.57472 17.3492L20.3254 5.59932L17.9204 3.19413ZM6.1673 14.9464C6.2463 14.8671 6.34019 14.8042 6.44358 14.7612L7.7483 17.9024C8.05846 17.7735 8.34013 17.5847 8.57714 17.3468L6.1673 14.9464ZM6.44358 14.7612C6.54696 14.7183 6.65781 14.6962 6.76976 14.6962V18.0975C7.1056 18.0975 7.43815 18.0312 7.7483 17.9024L6.44358 14.7612ZM6.76976 14.6962C6.88171 14.6962 6.99255 14.7183 7.09594 14.7612L5.79121 17.9024C6.10137 18.0312 6.43391 18.0975 6.76976 18.0975V14.6962ZM7.09594 14.7612C7.19933 14.8042 7.29321 14.8671 7.37222 14.9464L4.96238 17.3468C5.19939 17.5847 5.48106 17.7735 5.79121 17.9024L7.09594 14.7612ZM7.37041 14.9446L2.82624 10.3962L0.420019 12.8002L4.96419 17.3486L7.37041 14.9446ZM2.82805 10.398C2.59104 10.1601 2.30937 9.97125 1.99922 9.84242L0.694489 12.9835C0.591106 12.9406 0.497217 12.8777 0.418212 12.7984L2.82805 10.398ZM1.99922 9.84242C1.68906 9.71359 1.35652 9.64727 1.02067 9.64727V13.0486C0.908724 13.0486 0.797877 13.0265 0.694489 12.9835L1.99922 9.84242ZM1.02067 9.64727C0.684826 9.64727 0.352283 9.71359 0.0421251 9.84242L1.34685 12.9835C1.24347 13.0265 1.13262 13.0486 1.02067 13.0486V9.64727ZM0.0421251 9.84242C-0.268029 9.97125 -0.549694 10.1601 -0.786707 10.398L1.62313 12.7984C1.54413 12.8777 1.45024 12.9406 1.34685 12.9835L0.0421251 9.84242ZM-0.781963 10.3933C-1.01992 10.6303 -1.20872 10.9119 -1.33755 11.2221L1.80358 12.5268C1.76064 12.6302 1.69771 12.7241 1.61839 12.8031L-0.781963 10.3933ZM-1.33755 11.2221C-1.46637 11.5322 -1.53269 11.8648 -1.53269 12.2006H1.86863C1.86863 12.3126 1.84652 12.4234 1.80358 12.5268L-1.33755 11.2221ZM-1.53269 12.2006C-1.53269 12.5365 -1.46638 12.869 -1.33755 13.1792L1.80358 11.8745C1.84652 11.9778 1.86863 12.0887 1.86863 12.2006H-1.53269ZM-1.33755 13.1792C-1.20872 13.4893 -1.01992 13.771 -0.781963 14.008L1.61839 11.5982C1.69771 11.6772 1.76064 11.7711 1.80358 11.8745L-1.33755 13.1792ZM-0.784225 14.0058L3.76164 18.5508L6.16652 16.1455L1.62065 11.6004L-0.784225 14.0058ZM3.76265 18.5518C4.56104 19.3487 5.64299 19.7963 6.77103 19.7963V16.3949C6.54398 16.3949 6.32621 16.3049 6.16551 16.1445L3.76265 18.5518ZM6.77103 19.7963C7.89908 19.7963 8.98103 19.3487 9.77942 18.5518L7.37656 16.1445C7.21586 16.3049 6.99808 16.3949 6.77103 16.3949V19.7963ZM9.78041 18.5508L21.5303 6.80348L19.1254 4.39812L7.37557 16.1454L9.78041 18.5508ZM21.5289 6.80486C21.7665 6.5679 21.9549 6.28639 22.0835 5.97647L18.9419 4.67286C18.9848 4.56956 19.0476 4.47572 19.1268 4.39673L21.5289 6.80486ZM22.0835 5.97647C22.2121 5.66655 22.2783 5.33431 22.2783 4.99876H18.877C18.877 4.88691 18.8991 4.77616 18.9419 4.67286L22.0835 5.97647ZM22.2783 4.99876C22.2783 4.66322 22.2121 4.33097 22.0835 4.02105L18.9419 5.32467C18.8991 5.22136 18.877 5.11061 18.877 4.99876H22.2783ZM22.0835 4.02105C21.9549 3.71113 21.7665 3.42963 21.5289 3.19266L19.1268 5.6008C19.0476 5.52181 18.9848 5.42797 18.9419 5.32467L22.0835 4.02105ZM21.5328 3.19655C21.2958 2.95861 21.0141 2.7698 20.7039 2.64097L19.3992 5.7821C19.2958 5.73915 19.2019 5.67622 19.1229 5.5969L21.5328 3.19655ZM20.7039 2.64097C20.3938 2.51214 20.0613 2.44582 19.7254 2.44582V5.84715C19.6134 5.84715 19.5026 5.82504 19.3992 5.7821L20.7039 2.64097ZM19.7254 2.44582C19.3896 2.44582 19.057 2.51214 18.7469 2.64097L20.0516 5.7821C19.9482 5.82504 19.8374 5.84715 19.7254 5.84715V2.44582ZM18.7469 2.64097C18.4367 2.7698 18.155 2.95861 17.918 3.19655L20.3279 5.5969C20.2489 5.67622 20.155 5.73915 20.0516 5.7821L18.7469 2.64097Z" fill="#82A435" mask="url(#path-1-inside-1_53_11005)"/>
</g>
<defs>
<clipPath id="clip0_53_11005">
<rect width="20.4079" height="20.4079" fill="white" transform="translate(0.144531 0.628906)"/>
</clipPath>
</defs>
</svg>
