<svg width="59" height="61" viewBox="0 0 59 61" fill="none" xmlns="http://www.w3.org/2000/svg">
<path fill-rule="evenodd" clip-rule="evenodd" d="M28.7666 0C38.6886 0 44.741 0.0199152 45.4092 0.0597454C45.9884 0.0995757 46.7012 0.172598 47.0003 0.232343C47.2994 0.28545 47.8595 0.418218 48.2414 0.524431C48.6232 0.630645 49.2596 0.849712 49.6415 1.00903C50.0234 1.16835 50.558 1.41397 50.8189 1.55338C51.0798 1.69278 51.519 1.95168 51.7926 2.12428C52.0599 2.30352 52.5627 2.66863 52.9 2.9408C53.2437 3.21297 53.8101 3.73076 54.1538 4.08924C54.5038 4.44771 54.962 4.9655 55.1721 5.23768C55.3821 5.50985 55.7448 6.04756 55.9867 6.43258C56.2285 6.81761 56.5786 7.45489 56.7631 7.85983C56.9541 8.26477 57.215 8.88878 57.3423 9.25389C57.4696 9.619 57.6605 10.2762 57.7623 10.7143C57.8641 11.1525 57.9914 11.8827 58.0423 12.3407C58.0933 12.7988 58.1378 13.3697 58.1378 14.0667H53.301L53.2628 13.4892C53.2437 13.1639 53.1864 12.666 53.1291 12.3739C53.0782 12.0818 52.9509 11.5906 52.8555 11.2786C52.76 10.9666 52.5691 10.4754 52.4354 10.1833C52.3018 9.89117 52.0217 9.38002 51.8117 9.05474C51.6017 8.72946 51.1817 8.19175 50.8825 7.86647C50.5834 7.54783 50.0997 7.09642 49.8006 6.87072C49.5015 6.64501 49.1005 6.3662 48.9096 6.25335C48.7187 6.13386 48.3177 5.9347 48.0186 5.80194C47.7195 5.66917 47.204 5.48993 46.873 5.397C46.5421 5.3107 45.9948 5.20448 45.6638 5.16465C45.2629 5.12482 39.4714 5.10491 28.5121 5.12482C13.0532 5.14474 11.9331 5.15138 11.5194 5.25759C11.2712 5.32397 10.8576 5.44347 10.5966 5.5364C10.3357 5.6227 9.93474 5.77538 9.70562 5.88824C9.47651 5.99445 9.06283 6.22679 8.7828 6.39939C8.50277 6.57863 8.07637 6.89063 7.82816 7.09642C7.57995 7.30221 7.18537 7.70051 6.93716 7.97268C6.68895 8.24486 6.34528 8.68963 6.16708 8.9618C5.98252 9.23398 5.70886 9.72521 5.54975 10.0505C5.39064 10.3758 5.18062 10.8869 5.09152 11.179C4.99606 11.4711 4.85604 11.9823 4.78603 12.3075C4.65238 12.905 4.65238 12.9448 4.63329 30.032C4.6142 42.5188 4.62693 47.3382 4.67784 47.8228C4.72239 48.1879 4.82422 48.7721 4.90696 49.1173C4.99606 49.4625 5.16153 49.9869 5.26972 50.279C5.38428 50.5711 5.63248 51.0756 5.81705 51.4076C6.00798 51.7395 6.3071 52.1975 6.49166 52.4365C6.67623 52.6755 7.0199 53.0671 7.26174 53.3128C7.50358 53.5584 7.87271 53.8969 8.08273 54.0563C8.29275 54.2222 8.68097 54.4878 8.94191 54.6537C9.20285 54.813 9.66107 55.052 9.9602 55.1782C10.2593 55.3043 10.8194 55.4968 11.9013 55.7889H46.0139L46.7139 55.5964C47.0958 55.4968 47.6431 55.3109 47.9231 55.1914C48.2032 55.0719 48.6487 54.8462 48.9096 54.6869C49.1705 54.5342 49.4697 54.3484 49.5779 54.2687C49.686 54.1957 49.9406 53.9832 50.1506 53.804C50.3607 53.6181 50.6343 53.3659 50.7552 53.2331C50.8825 53.107 51.1244 52.8215 51.3026 52.6025C51.4808 52.3834 51.7481 52.0116 51.8945 51.7727C52.0472 51.5337 52.289 51.0756 52.4418 50.7437C52.5945 50.4118 52.7855 49.9073 52.8746 49.6152C52.9637 49.3231 53.0782 48.8451 53.1291 48.5531C53.1864 48.261 53.2437 47.7631 53.301 46.8603H58.1378V47.2918C58.1378 47.5307 58.106 48.0153 58.0742 48.3738C58.036 48.7257 57.9469 49.3297 57.8769 49.7148C57.8005 50.0998 57.6223 50.8035 57.4696 51.2748C57.3232 51.7461 57.0686 52.4365 56.9031 52.8016C56.7377 53.1667 56.4385 53.7509 56.2413 54.0961C56.044 54.4413 55.6685 55.0255 55.4012 55.3906C55.1402 55.7557 54.6247 56.3731 54.2556 56.7581C53.8865 57.1431 53.3837 57.6277 53.1418 57.8269C52.9 58.026 52.4418 58.3712 52.1236 58.5903C51.8054 58.8093 51.2962 59.1346 50.978 59.3072C50.6598 59.4798 50.2334 59.6922 50.0234 59.7852C49.8133 59.8781 49.3678 60.0507 49.0369 60.1702C48.7059 60.2897 48.1777 60.449 47.8595 60.5287C47.5413 60.6017 47.0321 60.7146 46.7139 60.7677C46.3957 60.8208 45.9629 60.8672 45.7466 60.8672C45.5174 60.8672 45.3456 60.8938 45.3456 60.9336C45.3456 60.9801 39.8405 61 28.9576 61C18.0747 61 12.5696 60.9801 12.5696 60.9336C12.5696 60.8938 12.3977 60.8672 12.175 60.8672C11.9522 60.8672 11.5194 60.8208 11.2012 60.7677C10.883 60.7146 10.4312 60.6216 10.1829 60.5619C9.93474 60.5021 9.46378 60.3694 9.13284 60.2565C8.8019 60.1437 8.25457 59.9312 7.92362 59.7852C7.59268 59.6458 7.13445 59.4201 6.90534 59.2873C6.67623 59.1612 6.24982 58.889 5.9507 58.6898C5.65158 58.4907 5.18062 58.1389 4.90059 57.9132C4.62056 57.6808 4.19416 57.3024 3.94595 57.0701C3.69774 56.8311 3.25861 56.3332 2.95948 55.9615C2.66036 55.5831 2.25941 55.0321 2.06849 54.7334C1.87756 54.4347 1.59753 53.9633 1.45115 53.6912C1.29841 53.419 1.0502 52.8879 0.891093 52.5029C0.731986 52.1179 0.509236 51.5204 0.407407 51.1752C0.299214 50.83 0.140107 50.1861 0.0573718 49.748C-0.0317282 49.3098 -0.127192 48.6394 -0.165378 48.2543C-0.203564 47.8295 -0.222656 40.9588 -0.222656 30.51C-0.222656 19.8089 -0.197199 13.1904 -0.159013 12.7258C-0.127192 12.3142 -0.0508206 11.7366 9.3624e-05 11.4446C0.0573722 11.1525 0.140108 10.7475 0.191022 10.5484C0.241936 10.3492 0.350129 9.95756 0.439229 9.68538C0.521964 9.41321 0.706528 8.90206 0.846542 8.55686C0.986557 8.21167 1.20931 7.71379 1.34296 7.46153C1.47024 7.20263 1.72481 6.75786 1.90301 6.46577C2.08121 6.17369 2.44398 5.64925 2.71128 5.30406C2.97221 4.95886 3.40498 4.44771 3.66592 4.17554C3.92686 3.90336 4.41054 3.45195 4.74148 3.17314C5.07243 2.89433 5.58793 2.49603 5.88705 2.2836C6.18618 2.07781 6.80351 1.71934 7.25538 1.48036C7.70724 1.24801 8.47095 0.929372 8.94191 0.763413C9.41287 0.597453 10.1575 0.391664 10.5966 0.298727C11.0358 0.20579 11.7931 0.106214 12.2832 0.073022C12.7732 0.0398301 20.194 0.00663837 28.7666 0ZM214.126 17.1336C217.188 17.127 219.294 17.1469 219.568 17.1867C219.81 17.2266 220.185 17.3394 220.395 17.4456C220.605 17.5452 220.93 17.7776 221.114 17.9568C221.35 18.1759 221.534 18.4414 221.687 18.7733C221.916 19.2579 221.923 19.2911 221.923 20.0081C221.923 20.7184 221.916 20.7582 221.693 21.2362C221.515 21.6079 221.356 21.8336 221.057 22.1191C220.771 22.3846 220.516 22.5572 219.759 22.8626L208.558 22.9289L208.15 23.1613C207.928 23.2874 207.641 23.5131 207.52 23.6592C207.399 23.8052 207.234 24.0707 207.151 24.2566C207.068 24.4358 206.979 24.7545 206.954 24.9536C206.935 25.1727 206.947 25.4847 207.005 25.7502C207.056 26.0291 207.17 26.3145 207.323 26.5468C207.457 26.746 207.686 27.0049 207.838 27.1244C207.985 27.2372 208.227 27.3899 208.367 27.4563C208.609 27.5692 208.978 27.5758 214.413 27.609C219.485 27.6422 220.262 27.6621 220.682 27.755C220.943 27.8148 221.363 27.9343 221.604 28.0139C221.846 28.0936 222.254 28.2529 222.495 28.3724C222.737 28.4919 223.202 28.7641 223.514 28.9831C223.826 29.1956 224.296 29.5806 224.557 29.8395C224.812 30.0917 225.2 30.5431 225.417 30.8352C225.627 31.134 225.919 31.5986 226.053 31.8642C226.187 32.1364 226.397 32.621 226.505 32.9529C226.619 33.2848 226.772 33.8623 226.849 34.2474C226.938 34.7187 226.982 35.19 226.982 35.7078C226.982 36.2256 226.938 36.6969 226.849 37.1682C226.772 37.5533 226.613 38.1507 226.492 38.4959C226.371 38.8411 226.142 39.3655 225.983 39.6576C225.83 39.9497 225.518 40.4277 225.302 40.7198C225.079 41.0119 224.729 41.4168 224.526 41.616C224.316 41.8151 223.889 42.1603 223.577 42.386C223.259 42.6051 222.82 42.8772 222.591 42.9901C222.362 43.103 221.993 43.2623 221.764 43.3419C221.534 43.4216 221.089 43.5544 220.777 43.6274C220.223 43.7601 220.007 43.7668 214.667 43.7933C210.671 43.8066 209.022 43.7933 208.749 43.7402C208.539 43.6938 208.195 43.5809 207.985 43.4747C207.775 43.3685 207.463 43.1428 207.291 42.9635C207.113 42.7777 206.89 42.4391 206.75 42.147C206.527 41.6691 206.521 41.6359 206.521 40.9189C206.527 40.2352 206.54 40.1622 206.725 39.7572C206.839 39.5182 207.024 39.2062 207.145 39.0602C207.259 38.9141 207.501 38.7017 207.673 38.5822C207.845 38.4627 208.112 38.3167 208.271 38.2503C208.539 38.1374 208.959 38.1308 219.759 38.0644L220.128 37.8786C220.325 37.779 220.624 37.5665 220.79 37.4072C220.981 37.228 221.165 36.9558 221.286 36.6969C221.452 36.3318 221.477 36.199 221.477 35.7078C221.477 35.2166 221.452 35.0838 221.286 34.7187C221.165 34.4598 220.981 34.1876 220.79 34.0084C220.624 33.8491 220.325 33.6366 219.759 33.3512L213.904 33.3114C210.683 33.2914 207.991 33.2582 207.921 33.2317C207.851 33.2118 207.59 33.1454 207.348 33.0856C207.107 33.0259 206.642 32.8666 206.33 32.7404C206.018 32.6077 205.541 32.3687 205.28 32.2027C205.019 32.0434 204.644 31.7779 204.453 31.6252C204.262 31.4659 203.924 31.1472 203.714 30.9149C203.498 30.6892 203.199 30.3307 203.04 30.1316C202.887 29.9324 202.626 29.5142 202.461 29.2022C202.302 28.8902 202.092 28.4454 202.002 28.2064C201.913 27.9675 201.767 27.4629 201.671 27.0779C201.519 26.4539 201.5 26.2614 201.506 25.2524C201.506 24.4624 201.538 23.9844 201.608 23.6592C201.665 23.4003 201.78 22.9621 201.869 22.6767C201.964 22.3979 202.136 21.9465 202.263 21.6809C202.391 21.422 202.626 20.9972 202.785 20.7383C202.944 20.4794 203.364 19.9749 203.714 19.6031C204.071 19.238 204.516 18.8131 204.707 18.6737C204.898 18.5277 205.223 18.3153 205.426 18.1958C205.624 18.0763 206.025 17.8838 206.311 17.7576C206.604 17.6315 207.081 17.4722 207.38 17.3925C207.679 17.3129 208.195 17.2266 208.526 17.1934C208.857 17.1668 211.377 17.1336 214.126 17.1336ZM28.3211 12.0818C34.5645 12.0752 37.8612 12.0951 38.0903 12.1416C38.2812 12.1814 38.6122 12.2943 38.8222 12.4005C39.0322 12.5001 39.3441 12.7191 39.5223 12.8851C39.6941 13.051 39.9296 13.3564 40.0442 13.5755C40.1524 13.7879 40.2924 14.1464 40.3496 14.3654C40.4324 14.6509 40.4515 14.8899 40.426 15.2284C40.4069 15.4807 40.3369 15.8591 40.2669 16.0582C40.2033 16.2574 40.0632 16.5561 39.9551 16.7221C39.8469 16.888 34.5709 22.4111 28.232 29.003C19.4557 38.1175 16.6045 41.0451 16.3054 41.2376C16.089 41.377 15.809 41.5164 15.688 41.5562C15.5671 41.596 15.2489 41.6425 14.988 41.6624C14.7016 41.689 14.3706 41.6691 14.1606 41.616C13.9697 41.5695 13.6642 41.4566 13.4924 41.3637C13.3142 41.2708 13.0151 41.0384 12.8241 40.8525C12.6205 40.6468 12.3914 40.3281 12.2704 40.0825C12.1431 39.8302 12.0286 39.4585 11.984 39.1598C11.9268 38.7681 11.9268 38.5623 11.984 38.2105C12.0286 37.9649 12.1368 37.5931 12.2259 37.3807C12.3723 37.0421 13.276 36.0862 21.1995 27.8413C29.3394 19.384 30.014 18.6671 30.0077 18.4613C30.0077 18.3153 29.9631 18.2157 29.8613 18.1493C29.7404 18.063 29.0276 18.0497 24.3117 18.0497C19.5321 18.0497 18.8638 18.0365 18.552 17.9435C18.361 17.8838 18.0556 17.751 17.8837 17.6514C17.7055 17.5452 17.4191 17.2996 17.2409 17.1071C17.0627 16.9146 16.8591 16.649 16.7827 16.5229C16.7127 16.3968 16.6109 16.1246 16.5536 15.9255C16.4899 15.7197 16.4454 15.328 16.4454 15.0293C16.4454 14.7372 16.4836 14.3654 16.5345 14.1995C16.579 14.0335 16.6936 13.7613 16.7891 13.5821C16.8845 13.4095 17.1009 13.1174 17.2791 12.9382C17.451 12.7523 17.7755 12.5133 17.9919 12.4005C18.2147 12.2876 18.5074 12.1681 18.6474 12.1416C18.7875 12.115 23.1406 12.0885 28.3211 12.0818ZM60.429 17.1735C60.7599 17.1867 61.3518 17.2399 61.7336 17.293C62.1155 17.3461 62.7201 17.4656 63.0701 17.5585C63.4202 17.6514 63.9484 17.8174 64.2475 17.9236C64.5466 18.0298 65.1703 18.3153 65.6286 18.5476C66.0932 18.7866 66.755 19.1783 67.0924 19.4172C67.436 19.6629 67.9452 20.0612 68.2252 20.3068C68.5052 20.559 68.9189 20.964 69.148 21.2162C69.3771 21.4619 69.6953 21.8336 69.8608 22.0328C70.0199 22.2319 70.3763 22.7431 70.6436 23.1613C70.9109 23.5795 71.2864 24.2633 71.4773 24.6682C71.6683 25.0798 71.9483 25.8166 72.1011 26.2946C72.2538 26.7792 72.4447 27.5094 72.5147 27.9077C72.5911 28.306 72.6802 29.0628 72.712 29.5806C72.7502 30.1581 72.7502 30.6826 72.7184 30.9083C72.6866 31.1207 72.5911 31.4592 72.5084 31.6584C72.4193 31.8575 72.1965 32.1961 72.0056 32.4152C71.7574 32.694 71.5283 32.8732 70.7073 33.2848L62.0009 33.2981C55.0893 33.3114 53.301 33.3379 53.301 33.3976C53.301 33.4441 53.3646 33.6167 53.4346 33.7827C53.5046 33.9486 53.721 34.327 53.9119 34.6258C54.1029 34.9311 54.4656 35.4024 54.7138 35.6812C54.9684 35.9601 55.3948 36.3584 55.6557 36.5642C55.9167 36.7699 56.3876 37.0753 56.7058 37.2479C57.0241 37.4139 57.5778 37.6462 57.9469 37.7657C58.3606 37.8918 58.8824 37.998 59.3152 38.0379C59.7925 38.0843 60.2317 38.0843 60.6835 38.0379C61.0527 37.998 61.6063 37.8985 61.9246 37.8055C62.2428 37.7192 62.7137 37.54 62.9747 37.4205C63.2356 37.2944 63.6938 37.0222 63.993 36.8231C64.2921 36.6173 64.7376 36.2588 64.9794 36.0264C65.2213 35.7941 65.5077 35.5418 65.6158 35.4622C65.724 35.3825 65.985 35.263 66.2014 35.1834C66.4623 35.0904 66.7678 35.044 67.0605 35.044C67.3406 35.044 67.6906 35.0904 67.9388 35.1701C68.1743 35.2431 68.5052 35.4157 68.7025 35.5684C68.8934 35.7211 69.1353 35.9534 69.2371 36.0928C69.3326 36.2256 69.4853 36.4978 69.5681 36.6836C69.6508 36.8762 69.7463 37.2214 69.7844 37.4471C69.8226 37.706 69.8226 38.0047 69.7908 38.2304C69.759 38.4295 69.6699 38.7747 69.5872 38.9938C69.4726 39.2992 69.3262 39.5182 68.9316 39.9497C68.6452 40.2551 68.187 40.6932 67.907 40.9189C67.627 41.1446 67.1687 41.4898 66.8887 41.6823C66.6087 41.8749 66.0104 42.22 65.5522 42.4524C65.094 42.6781 64.4066 42.9768 64.0248 43.1096C63.6429 43.2424 62.981 43.4216 62.561 43.5079C62.1409 43.5942 61.4281 43.7004 60.9699 43.7469C60.499 43.7867 59.8562 43.8 59.4743 43.7801C59.1052 43.7535 58.5324 43.6938 58.2015 43.6407C57.8705 43.5942 57.3932 43.5079 57.1513 43.4481C56.9095 43.395 56.464 43.2689 56.1649 43.176C55.8658 43.0764 55.4203 42.9104 55.1784 42.7976C54.9366 42.6914 54.5293 42.4922 54.2874 42.3661C54.0456 42.24 53.7401 42.074 53.6192 42.001C53.4982 41.9213 53.2373 41.7554 53.0464 41.6292C52.8555 41.4965 52.5245 41.2575 52.3145 41.0915C52.1045 40.9256 51.7481 40.6268 51.5253 40.421C51.3026 40.2219 50.8507 39.7439 50.5198 39.3589C50.1888 38.9739 49.686 38.3034 49.406 37.8653C49.126 37.4271 48.7314 36.7102 48.5214 36.2721C48.3177 35.8339 48.0377 35.117 47.8977 34.6789C47.7577 34.2407 47.5858 33.5835 47.5158 33.2184C47.4458 32.8533 47.3567 32.3023 47.3185 31.9903C47.2867 31.6783 47.2549 30.9879 47.2549 30.4436C47.2549 29.9059 47.2994 29.1292 47.3567 28.7176C47.4076 28.3127 47.5095 27.7351 47.5795 27.443C47.6431 27.1509 47.7831 26.6398 47.885 26.3145C47.9868 25.9826 48.165 25.4781 48.2859 25.186C48.4068 24.8939 48.585 24.5022 48.6869 24.323C48.7823 24.1371 48.9796 23.7786 49.1196 23.5264C49.266 23.2675 49.5842 22.7763 49.8388 22.4311C50.087 22.0859 50.6789 21.4087 51.1435 20.9374C51.6144 20.4595 52.2699 19.8753 52.6009 19.6297C52.9318 19.384 53.5237 19.0057 53.9056 18.7866C54.2874 18.5675 54.8475 18.2887 55.1466 18.1626C55.4457 18.0365 55.8721 17.8705 56.1012 17.7975C56.3304 17.7178 56.8331 17.5784 57.215 17.4921C57.5968 17.3992 58.1887 17.2996 58.5197 17.2598C58.8506 17.2199 59.2834 17.1735 59.4743 17.1668C59.6652 17.1536 60.098 17.1602 60.429 17.1735ZM57.8832 23.2011C57.5841 23.294 57.0559 23.5264 56.7058 23.7123C56.3558 23.9048 55.8976 24.1902 55.6876 24.3495C55.4775 24.5155 55.153 24.7943 54.962 24.9802C54.7775 25.1661 54.4911 25.498 54.3256 25.7171C54.1665 25.9361 53.9628 26.2216 53.8801 26.3477C53.7974 26.4738 53.6192 26.8124 53.4855 27.0912L53.2373 27.609C63.6938 27.609 66.7296 27.6024 66.7296 27.5891C66.7296 27.5824 66.6723 27.4231 66.5959 27.2439C66.5196 27.058 66.3095 26.673 66.125 26.3809C65.9468 26.0888 65.6477 25.6706 65.4631 25.4515C65.2785 25.2325 64.9667 24.9072 64.7694 24.7279C64.5657 24.5553 64.2221 24.2832 63.993 24.1238C63.7638 23.9712 63.4202 23.7587 63.2292 23.6592C63.0383 23.5596 62.6374 23.387 62.3382 23.2808C62.0391 23.1746 61.5554 23.0484 61.2563 22.9953C60.9445 22.9356 60.378 22.8957 59.9198 22.9024C59.4807 22.909 58.9652 22.9356 58.7742 22.9688C58.5833 23.002 58.1824 23.1082 57.8832 23.2011ZM88.3045 17.1735C88.6355 17.1867 89.2273 17.2399 89.6092 17.293C89.991 17.3461 90.6402 17.4722 91.0412 17.5784C91.4421 17.678 92.104 17.9037 92.5049 18.0696C92.9059 18.2356 93.4659 18.4945 93.746 18.6472C94.026 18.8065 94.497 19.092 94.7961 19.2977C95.0952 19.4969 95.5216 19.8089 95.7507 19.9948C95.9798 20.1806 96.4317 20.6055 96.7626 20.9374C97.0872 21.2627 97.52 21.7407 97.7236 21.9996C97.9209 22.2518 98.2837 22.763 98.5192 23.1281C98.7547 23.4932 99.1238 24.177 99.3465 24.6549C99.5693 25.1262 99.8557 25.8299 99.9766 26.2149C100.104 26.6 100.263 27.1974 100.333 27.5426C100.409 27.8878 100.505 28.5317 100.556 28.9699C100.607 29.408 100.651 29.9922 100.651 30.2643C100.651 30.5365 100.607 30.9348 100.556 31.1406C100.505 31.353 100.403 31.6518 100.327 31.8044C100.25 31.9638 100.047 32.2492 99.862 32.4417C99.6838 32.6409 99.3911 32.8732 99.2193 32.9662C99.0411 33.0591 98.7738 33.1786 98.6146 33.225C98.3792 33.2981 96.7881 33.318 89.7492 33.318C84.0786 33.318 81.1765 33.3379 81.1765 33.3844C81.1765 33.4176 81.2656 33.6366 81.3738 33.8623C81.482 34.0947 81.6984 34.4731 81.8448 34.712C81.9975 34.951 82.3603 35.4024 82.653 35.7144C82.9394 36.0264 83.3085 36.3849 83.4677 36.511C83.6268 36.6438 83.9259 36.8496 84.1359 36.9824C84.3459 37.1151 84.6387 37.2811 84.7851 37.3608C84.9378 37.4338 85.2815 37.5732 85.5488 37.6728C85.8224 37.7657 86.2488 37.8852 86.4907 37.9449C86.7834 38.0113 87.2608 38.0445 87.8908 38.0445C88.5209 38.0445 88.9982 38.0113 89.291 37.9449C89.5328 37.8852 89.9592 37.7657 90.2265 37.6728C90.5002 37.5732 90.8948 37.4072 91.1048 37.301C91.3148 37.1882 91.6521 36.989 91.8494 36.8562C92.0531 36.7168 92.4922 36.3584 92.8232 36.053C93.1923 35.7078 93.5869 35.4091 93.8414 35.2896C94.1851 35.117 94.3569 35.0772 94.8279 35.0572C95.3052 35.0307 95.4771 35.0506 95.8462 35.1834C96.088 35.263 96.419 35.4356 96.5781 35.5618C96.7372 35.6879 96.9472 35.8804 97.0427 35.9999C97.1381 36.1127 97.2972 36.3716 97.3991 36.5708C97.5009 36.7699 97.6155 37.0952 97.6536 37.2811C97.6918 37.4736 97.7236 37.7591 97.7236 37.9117C97.7236 38.0711 97.6855 38.3432 97.6345 38.5291C97.59 38.7083 97.4882 38.9938 97.4054 39.1598C97.3291 39.3257 97.17 39.578 97.0618 39.7174C96.9536 39.8634 96.5908 40.2219 96.2599 40.5206C95.9289 40.8194 95.4707 41.1977 95.2416 41.3637C95.0125 41.5297 94.6688 41.7686 94.4779 41.8815C94.2869 42.001 93.886 42.2267 93.5869 42.386C93.2877 42.5387 92.8168 42.7644 92.5368 42.8772C92.2567 42.9901 91.7858 43.1627 91.4866 43.249C91.1875 43.3419 90.742 43.4548 90.5002 43.5079C90.2583 43.561 89.8001 43.6407 89.4819 43.6871C89.1637 43.7336 88.4509 43.7668 87.8908 43.7668C87.3308 43.7668 86.618 43.7336 86.2998 43.6871C85.9815 43.6407 85.5233 43.561 85.2815 43.5079C85.0396 43.4548 84.7214 43.3751 84.5814 43.3353C84.4414 43.2955 84.0723 43.1693 83.7541 43.0631C83.4358 42.9503 82.8503 42.698 82.4494 42.4989C82.0484 42.2997 81.5011 42.001 81.2402 41.835C80.9792 41.6624 80.6037 41.4035 80.4128 41.2575C80.2219 41.1114 79.7955 40.7463 79.4645 40.4542C79.1336 40.1622 78.5926 39.5913 78.2617 39.193C77.9371 38.7946 77.5171 38.2237 77.3325 37.9317C77.1479 37.6396 76.9379 37.2944 76.8679 37.1682C76.7979 37.0421 76.6642 36.8031 76.5815 36.6372C76.4924 36.4712 76.3078 36.053 76.1678 35.7078C76.0278 35.3626 75.8369 34.8382 75.7414 34.5461C75.6523 34.254 75.5187 33.7296 75.4423 33.3844C75.3723 33.0392 75.2705 32.4085 75.2195 31.9903C75.1686 31.5721 75.1304 30.9083 75.1304 30.51C75.1304 30.1183 75.1623 29.5076 75.1941 29.1491C75.2323 28.7973 75.3214 28.1932 75.3914 27.8081C75.4678 27.4231 75.6396 26.7526 75.7732 26.3145C75.9133 25.8764 76.1933 25.1594 76.3969 24.7213C76.6006 24.2832 76.8997 23.699 77.0715 23.4268C77.237 23.1546 77.5361 22.7099 77.7334 22.4377C77.9307 22.1655 78.2617 21.7473 78.4653 21.5083C78.6754 21.2693 79.0445 20.8777 79.2927 20.6453C79.5409 20.413 79.9609 20.0545 80.2219 19.8487C80.4828 19.6429 80.8838 19.3509 81.1129 19.1982C81.342 19.0521 81.7302 18.8198 81.972 18.687C82.2139 18.5476 82.6212 18.3485 82.863 18.2356C83.1049 18.1294 83.5377 17.9568 83.8177 17.8572C84.0977 17.751 84.6578 17.5917 85.0587 17.4987C85.4597 17.4058 86.0643 17.2996 86.3952 17.2598C86.7262 17.2199 87.1589 17.1735 87.3499 17.1668C87.5408 17.1536 87.9736 17.1536 88.3045 17.1735ZM85.7079 23.2277C85.3897 23.3339 84.8996 23.5463 84.626 23.6857C84.3587 23.8318 83.9323 24.0907 83.6904 24.2699C83.4486 24.4558 83.0031 24.8541 82.7167 25.1594C82.4239 25.4648 82.0293 25.956 81.8448 26.2481C81.6602 26.5402 81.4374 26.9452 81.342 27.1443C81.2529 27.3435 81.1765 27.5293 81.1765 27.5559C81.1765 27.5891 84.1995 27.609 87.8908 27.609C91.5821 27.609 94.6051 27.5891 94.6051 27.5559C94.6051 27.5293 94.5288 27.3435 94.4397 27.1443C94.3442 26.9452 94.1215 26.5402 93.9369 26.2481C93.746 25.956 93.3196 25.4316 92.9695 25.0798C92.6259 24.7279 92.174 24.323 91.964 24.1769C91.754 24.0309 91.3721 23.7986 91.1175 23.6658C90.8693 23.533 90.392 23.3405 90.0674 23.2277C89.7492 23.1214 89.2719 23.002 89.0173 22.9621C88.7691 22.9289 88.2218 22.9024 87.8081 22.9024C87.4008 22.909 86.8916 22.9356 86.6816 22.9688C86.4716 23.002 86.0325 23.1148 85.7079 23.2277ZM116.116 17.1668C116.416 17.1801 116.918 17.2266 117.23 17.2598C117.542 17.293 118.077 17.3859 118.408 17.4589C118.739 17.5319 119.324 17.6979 119.712 17.8307C120.1 17.9568 120.781 18.2555 121.24 18.4812C121.698 18.7136 122.271 19.0389 122.513 19.2048C122.754 19.3708 122.971 19.5102 122.99 19.5102C123.009 19.5102 123.06 19.384 123.111 19.2314C123.155 19.072 123.264 18.8131 123.34 18.6472C123.423 18.4812 123.639 18.1891 123.824 17.9966C124.015 17.7975 124.339 17.5519 124.549 17.4523C124.759 17.3461 125.103 17.2332 125.319 17.2C125.536 17.1668 125.886 17.1668 126.115 17.2C126.337 17.2332 126.694 17.3394 126.904 17.4456C127.114 17.5519 127.4 17.7377 127.54 17.8639C127.68 17.99 127.89 18.2422 128.005 18.4215C128.119 18.6007 128.272 18.9393 128.342 19.1783C128.463 19.6031 128.463 19.8355 128.463 30.2643C128.463 37.2545 128.438 41.1247 128.393 41.5164C128.361 41.8417 128.272 42.4126 128.202 42.7777C128.132 43.1428 127.96 43.8 127.827 44.2381C127.687 44.6762 127.394 45.4197 127.165 45.8977C126.942 46.369 126.605 46.9997 126.427 47.2918C126.242 47.5839 125.911 48.0618 125.695 48.3539C125.472 48.646 124.995 49.1837 124.638 49.5554C124.275 49.9206 123.747 50.4052 123.467 50.6242C123.187 50.8433 122.754 51.1619 122.513 51.3213C122.271 51.4806 121.806 51.7528 121.494 51.9253C121.182 52.0913 120.661 52.3303 120.349 52.4564C120.037 52.5825 119.464 52.7751 119.076 52.8879C118.688 53.0008 118.089 53.1402 117.739 53.1933C117.389 53.2464 116.772 53.3128 116.371 53.3327C115.919 53.3592 115.493 53.3526 115.257 53.3061C115.047 53.2663 114.716 53.1534 114.525 53.0539C114.334 52.9543 114.016 52.7087 113.819 52.5095C113.628 52.3037 113.393 51.9718 113.303 51.7727C113.208 51.5735 113.1 51.215 113.055 50.9761C112.992 50.6375 112.992 50.445 113.049 50.0932C113.093 49.8475 113.195 49.4891 113.272 49.2966C113.354 49.1107 113.577 48.7788 113.768 48.5597C114.003 48.2942 114.252 48.1016 114.557 47.949C114.964 47.7365 115.073 47.7166 115.862 47.6569C116.333 47.6237 116.937 47.5507 117.198 47.4976C117.459 47.4378 117.835 47.3382 118.026 47.2652C118.217 47.1988 118.541 47.0594 118.739 46.9665C118.942 46.8735 119.299 46.6678 119.534 46.5217C119.776 46.369 120.17 46.0769 120.412 45.8645C120.654 45.6521 121.03 45.2604 121.246 44.9882C121.456 44.7227 121.749 44.3111 121.895 44.0722C122.035 43.8332 122.245 43.4415 122.347 43.1893C122.455 42.9436 122.614 42.4922 122.703 42.1802C122.793 41.8682 122.85 41.5828 122.831 41.5496C122.812 41.5097 122.551 41.6425 122.239 41.835C121.933 42.0275 121.399 42.3263 121.049 42.4922C120.699 42.6648 120.056 42.9237 119.617 43.0764C119.178 43.2224 118.522 43.4017 118.153 43.4747C117.784 43.5477 117.084 43.634 116.594 43.6672C115.989 43.7137 115.435 43.7137 114.875 43.6672C114.417 43.634 113.806 43.561 113.507 43.5079C113.208 43.4548 112.661 43.322 112.279 43.2092C111.903 43.103 111.381 42.9171 111.12 42.8109C110.86 42.698 110.363 42.4657 110.019 42.2864C109.682 42.1072 109.103 41.7554 108.734 41.5031C108.365 41.2508 107.862 40.8658 107.62 40.6534C107.378 40.441 106.99 40.0692 106.761 39.8302C106.525 39.5913 106.169 39.1797 105.965 38.9274C105.762 38.6685 105.386 38.1308 105.132 37.7325C104.877 37.3276 104.546 36.7301 104.387 36.4048C104.228 36.0729 104.012 35.5817 103.91 35.3095C103.808 35.0373 103.649 34.5594 103.56 34.2474C103.471 33.9354 103.337 33.3711 103.261 32.9861C103.191 32.601 103.101 31.8841 103.063 31.3929C103.031 30.9016 103.019 30.198 103.038 29.8328C103.057 29.4677 103.108 28.9433 103.14 28.6711C103.178 28.399 103.248 27.9475 103.299 27.6754C103.356 27.4032 103.464 26.9385 103.553 26.6464C103.642 26.3543 103.802 25.8764 103.903 25.5843C104.012 25.2922 104.272 24.708 104.483 24.2898C104.693 23.8716 105.087 23.2011 105.354 22.8028C105.622 22.3979 106.156 21.7274 106.545 21.3092C106.933 20.8843 107.448 20.3732 107.69 20.1607C107.932 19.9549 108.416 19.5898 108.766 19.3442C109.116 19.0986 109.746 18.7268 110.166 18.5144C110.586 18.302 111.216 18.0232 111.566 17.8971C111.916 17.7709 112.533 17.5917 112.934 17.4987C113.335 17.4058 113.94 17.2996 114.271 17.2598C114.602 17.2199 115.034 17.1735 115.225 17.1668C115.416 17.1536 115.817 17.1536 116.116 17.1668ZM113.634 23.2011C113.335 23.3007 112.794 23.5397 112.425 23.7322C112.056 23.9313 111.515 24.2898 111.216 24.5421C110.917 24.7943 110.503 25.1993 110.299 25.4582C110.089 25.7104 109.809 26.0954 109.676 26.3145C109.536 26.5336 109.319 26.9518 109.186 27.2439C109.052 27.536 108.887 27.9807 108.81 28.2396C108.74 28.4919 108.651 28.8703 108.607 29.0694C108.568 29.2686 108.517 29.7333 108.498 30.0984C108.479 30.4834 108.492 31.0012 108.537 31.3265C108.581 31.6385 108.683 32.1563 108.772 32.4882C108.861 32.8135 109.039 33.3246 109.173 33.6167C109.3 33.9088 109.548 34.3735 109.72 34.6457C109.899 34.9178 110.299 35.4091 110.611 35.7476C110.923 36.0796 111.413 36.511 111.693 36.7036C111.973 36.9027 112.444 37.1749 112.743 37.3209C113.042 37.4603 113.545 37.6528 113.857 37.7391C114.169 37.8254 114.691 37.925 115.003 37.9715C115.346 38.018 115.805 38.0312 116.148 38.0047C116.46 37.9781 116.925 37.9117 117.167 37.8586C117.408 37.8055 117.797 37.6993 118.026 37.6263C118.255 37.5466 118.713 37.3408 119.044 37.1616C119.375 36.9757 119.82 36.6969 120.03 36.5376C120.24 36.3716 120.597 36.053 120.82 35.8207C121.042 35.595 121.348 35.2431 121.494 35.044C121.641 34.8448 121.882 34.4664 122.029 34.2142C122.175 33.9553 122.379 33.5105 122.487 33.2184C122.595 32.9263 122.742 32.4616 122.818 32.1895C122.926 31.7779 122.945 31.4858 122.952 30.4635C122.952 29.3217 122.939 29.1889 122.78 28.5716C122.684 28.2064 122.5 27.6687 122.373 27.3766C122.239 27.0846 121.978 26.5933 121.787 26.2813C121.596 25.9693 121.176 25.4449 120.864 25.113C120.546 24.781 120.056 24.3562 119.776 24.157C119.496 23.9645 119.05 23.699 118.789 23.5729C118.528 23.4467 118.026 23.2542 117.676 23.148C117.109 22.9754 116.925 22.9489 115.989 22.9289C115.41 22.9157 114.767 22.9289 114.557 22.9688C114.347 23.002 113.933 23.1082 113.634 23.2011ZM133.777 17.1735C133.917 17.1867 134.172 17.2399 134.35 17.2863C134.522 17.3394 134.853 17.5054 135.076 17.6647C135.298 17.824 135.559 18.0564 135.655 18.1825C135.75 18.3086 135.897 18.5476 135.973 18.7136C136.056 18.8795 136.151 19.0986 136.189 19.2114C136.234 19.3442 136.266 21.422 136.291 25.5511C136.329 31.5721 136.329 31.6982 136.469 32.1895C136.539 32.4616 136.629 32.7736 136.66 32.8865C136.692 32.9927 136.813 33.3114 136.928 33.5835C137.042 33.8557 137.284 34.3204 137.469 34.6125C137.653 34.9046 138.016 35.3759 138.27 35.668C138.531 35.9534 138.958 36.3584 139.219 36.5642C139.48 36.7699 139.957 37.0753 140.269 37.2479C140.581 37.4139 141.083 37.6263 141.383 37.7192C141.682 37.8122 142.095 37.925 142.305 37.9715C142.515 38.018 143.088 38.0511 143.578 38.0511C144.068 38.0511 144.641 38.018 144.851 37.9715C145.061 37.925 145.437 37.8254 145.679 37.7524C145.92 37.6728 146.34 37.5134 146.601 37.3873C146.862 37.2612 147.314 36.9957 147.601 36.7965C147.893 36.5973 148.377 36.1791 148.689 35.8538C148.994 35.5352 149.408 35.0241 149.605 34.712C149.803 34.4 150.032 33.9951 150.121 33.8159C150.204 33.63 150.369 33.2118 150.477 32.8865C150.585 32.5546 150.713 31.9903 150.77 31.6252C150.846 31.0676 150.865 30.032 150.865 25.3188C150.865 20.4263 150.878 19.623 150.961 19.2778C151.018 19.0588 151.139 18.7468 151.228 18.5808C151.324 18.4148 151.546 18.136 151.718 17.9568C151.896 17.7776 152.215 17.5452 152.425 17.4456C152.635 17.3394 152.978 17.2332 153.188 17.2C153.417 17.1602 153.736 17.1602 153.984 17.1934C154.219 17.2266 154.576 17.3461 154.811 17.4656C155.04 17.585 155.359 17.824 155.524 17.9966C155.696 18.1759 155.912 18.4945 156.02 18.7136C156.129 18.9326 156.237 19.2977 156.275 19.5235C156.313 19.7757 156.339 22.0593 156.339 25.2524C156.339 28.1733 156.307 30.9813 156.275 31.4924C156.243 32.0036 156.141 32.767 156.059 33.1852C155.976 33.6034 155.804 34.2739 155.677 34.6789C155.55 35.0772 155.263 35.7941 155.04 36.2721C154.818 36.7434 154.48 37.374 154.302 37.6661C154.118 37.9582 153.838 38.3764 153.678 38.5955C153.519 38.8146 153.074 39.3324 152.686 39.7506C152.297 40.1622 151.75 40.6866 151.47 40.9189C151.19 41.1446 150.732 41.4898 150.452 41.6823C150.172 41.8749 149.573 42.22 149.115 42.4524C148.657 42.6781 147.989 42.9768 147.62 43.103C147.25 43.2291 146.678 43.3884 146.347 43.4614C146.016 43.5344 145.481 43.634 145.169 43.6805C144.858 43.7336 144.138 43.7668 143.578 43.7668C143.018 43.7668 142.286 43.727 141.955 43.6805C141.624 43.634 141.109 43.5411 140.81 43.4747C140.511 43.4083 139.957 43.249 139.569 43.1162C139.181 42.9835 138.436 42.6515 137.914 42.3794C137.386 42.1072 136.673 41.6757 136.323 41.4168C135.973 41.1579 135.445 40.7331 135.158 40.4675C134.866 40.202 134.407 39.7373 134.14 39.4253C133.873 39.1133 133.51 38.6486 133.332 38.3963C133.147 38.1374 132.899 37.7657 132.778 37.5665C132.651 37.3674 132.415 36.9293 132.25 36.604C132.091 36.2721 131.868 35.7808 131.76 35.5087C131.652 35.2365 131.48 34.7253 131.378 34.3801C131.276 34.0349 131.117 33.3777 130.862 32.0899L130.837 25.883C130.818 20.3997 130.824 19.6297 130.913 19.2778C130.971 19.0588 131.092 18.7468 131.181 18.5808C131.276 18.4148 131.499 18.136 131.671 17.9568C131.849 17.7776 132.167 17.5452 132.377 17.439C132.587 17.3394 132.931 17.2266 133.141 17.2C133.351 17.1668 133.637 17.1602 133.777 17.1735ZM161.621 17.1668C161.742 17.1801 161.971 17.2266 162.13 17.2664C162.289 17.2996 162.531 17.3925 162.671 17.4656C162.811 17.5452 163.053 17.7112 163.206 17.8439C163.358 17.9767 163.588 18.2489 163.715 18.448C163.849 18.6472 163.995 18.9725 164.046 19.165C164.097 19.3575 164.154 19.5102 164.179 19.5102C164.211 19.5102 164.351 19.4239 164.498 19.3177C164.65 19.2181 165.058 18.9658 165.408 18.7667C165.758 18.5742 166.305 18.302 166.617 18.1692C166.929 18.0365 167.419 17.8506 167.699 17.7576C167.979 17.6647 168.482 17.5319 168.813 17.4589C169.144 17.3859 169.545 17.3129 169.704 17.2863C169.863 17.2598 170.321 17.2199 170.722 17.1867C171.123 17.1602 171.626 17.1602 171.836 17.1934C172.046 17.2199 172.389 17.3328 172.599 17.4324C172.809 17.5319 173.147 17.7776 173.35 17.9833C173.586 18.2091 173.796 18.4945 173.91 18.7468C174.012 18.9725 174.12 19.3442 174.152 19.6098C174.19 19.9085 174.19 20.2205 174.152 20.4727C174.114 20.6918 174.025 21.0171 173.942 21.203C173.86 21.3822 173.688 21.6676 173.56 21.8336C173.427 21.9996 173.159 22.2452 172.962 22.3846C172.759 22.524 172.453 22.6833 172.281 22.7364C172.103 22.7895 171.562 22.8626 171.072 22.8957C170.582 22.9356 170.009 23.0152 169.799 23.0683C169.589 23.1281 169.245 23.2343 169.035 23.3073C168.825 23.387 168.482 23.533 168.272 23.6392C168.062 23.7521 167.661 23.9977 167.381 24.1902C167.101 24.3827 166.623 24.8076 166.318 25.1329C166.012 25.4515 165.681 25.8365 165.58 25.9826C165.484 26.1286 165.293 26.4406 165.16 26.6796C165.026 26.9186 164.835 27.3169 164.733 27.5758C164.625 27.8281 164.498 28.2197 164.44 28.4388C164.383 28.6579 164.313 28.9699 164.275 29.1358C164.237 29.3151 164.199 31.8775 164.135 41.6558L163.906 42.1537C163.74 42.4989 163.562 42.7511 163.301 43.0034C163.091 43.2025 162.779 43.4349 162.607 43.5145C162.429 43.6008 162.086 43.707 161.844 43.7469C161.494 43.8133 161.309 43.8133 160.985 43.7469C160.755 43.7004 160.399 43.5676 160.189 43.4614C159.979 43.3486 159.661 43.1029 159.489 42.9171C159.311 42.7312 159.094 42.4258 159.012 42.2466C158.929 42.0607 158.821 41.762 158.776 41.5828C158.713 41.3172 158.693 39.1332 158.693 30.4967C158.693 20.9441 158.706 19.696 158.795 19.3442C158.846 19.1251 158.967 18.7932 159.063 18.614C159.158 18.4281 159.374 18.136 159.553 17.9568C159.724 17.7842 160.043 17.5519 160.253 17.4456C160.463 17.3394 160.806 17.2332 161.016 17.2C161.226 17.1668 161.5 17.1536 161.621 17.1668ZM187.174 17.1668C187.454 17.1801 187.956 17.2199 188.287 17.2598C188.618 17.293 189.166 17.3859 189.497 17.4589C189.828 17.5319 190.458 17.7178 190.897 17.8639C191.336 18.0165 192.093 18.3485 192.583 18.6074C193.073 18.8663 193.716 19.2579 194.015 19.477C194.314 19.696 194.83 20.1143 195.161 20.413C195.492 20.7051 195.988 21.2096 196.255 21.5216C196.529 21.8402 196.905 22.3182 197.089 22.5771C197.28 22.8426 197.56 23.2874 197.719 23.5596C197.878 23.8318 198.12 24.2964 198.26 24.5885C198.407 24.8806 198.61 25.3586 198.718 25.6507C198.827 25.9428 198.986 26.434 199.068 26.746C199.158 27.058 199.291 27.6355 199.374 28.0405C199.501 28.691 199.514 28.9632 199.514 30.4967C199.514 32.1098 199.501 32.2758 199.342 33.0525C199.253 33.5105 199.075 34.1943 198.96 34.5793C198.839 34.9643 198.591 35.6149 198.413 36.0198C198.235 36.4314 197.936 37.0288 197.745 37.3475C197.554 37.6728 197.21 38.1972 196.975 38.5291C196.739 38.8544 196.23 39.4585 195.835 39.8634C195.447 40.2684 194.944 40.7463 194.715 40.9322C194.486 41.1114 194.155 41.3703 193.983 41.4965C193.805 41.6226 193.379 41.8948 193.029 42.1006C192.679 42.3063 192.112 42.5918 191.769 42.7445C191.431 42.8905 190.827 43.1096 190.432 43.2357C190.044 43.3618 189.446 43.5079 189.115 43.5676C188.784 43.6274 188.179 43.707 187.778 43.7469C187.377 43.7867 186.734 43.8 186.346 43.7801C185.958 43.7535 185.443 43.707 185.201 43.6672C184.959 43.634 184.513 43.5544 184.214 43.5013C183.915 43.4415 183.444 43.322 183.164 43.2291C182.884 43.1361 182.407 42.9635 182.095 42.8374C181.789 42.7113 181.293 42.4723 180.981 42.3063C180.676 42.1404 180.154 41.8151 179.823 41.5894C179.492 41.3637 178.951 40.9388 178.62 40.6468C178.289 40.3613 177.786 39.8501 177.494 39.5249C177.207 39.193 176.857 38.7747 176.723 38.5955C176.583 38.4096 176.323 38.0246 176.138 37.7325C175.953 37.4404 175.616 36.8098 175.393 36.3385C175.171 35.8605 174.871 35.117 174.738 34.6789C174.598 34.2407 174.445 33.6698 174.388 33.4176C174.331 33.1587 174.241 32.6542 174.19 32.289C174.133 31.904 174.095 31.1472 174.095 30.4768C174.095 29.7864 174.133 29.0562 174.197 28.618C174.248 28.2264 174.35 27.6687 174.42 27.3766C174.49 27.0846 174.636 26.5601 174.744 26.2149C174.852 25.8697 175.088 25.2524 175.272 24.8541C175.451 24.4491 175.769 23.8384 175.973 23.4932C176.183 23.148 176.443 22.7298 176.564 22.5638C176.685 22.3979 177.004 21.9996 177.271 21.6809C177.538 21.3623 177.971 20.8976 178.232 20.652C178.493 20.4064 178.881 20.0678 179.091 19.8952C179.301 19.7292 179.702 19.4372 179.982 19.2446C180.262 19.0588 180.835 18.7268 181.255 18.5078C181.675 18.2954 182.318 18.0165 182.687 17.8838C183.056 17.751 183.667 17.5784 184.055 17.4921C184.443 17.3992 185.029 17.2996 185.36 17.2598C185.691 17.2199 186.124 17.1735 186.314 17.1668C186.505 17.1536 186.894 17.1536 187.174 17.1668ZM184.564 23.2542C184.284 23.3472 183.839 23.5397 183.578 23.6724C183.311 23.8118 182.859 24.1039 182.566 24.323C182.273 24.5421 181.834 24.947 181.579 25.2192C181.331 25.4913 180.962 25.9693 180.765 26.2813C180.568 26.5933 180.319 27.0381 180.217 27.2771C180.116 27.5161 179.969 27.8944 179.893 28.1201C179.823 28.3525 179.715 28.8172 179.657 29.1491C179.6 29.4876 179.549 30.0917 179.549 30.4967C179.556 30.895 179.594 31.4792 179.651 31.7912C179.702 32.1032 179.823 32.5944 179.918 32.8865C180.014 33.1786 180.217 33.6698 180.37 33.9818C180.529 34.2938 180.797 34.7386 180.962 34.9776C181.134 35.2166 181.522 35.6547 181.821 35.9534C182.12 36.2588 182.604 36.6637 182.89 36.8562C183.183 37.0488 183.622 37.301 183.864 37.4139C184.106 37.5334 184.571 37.706 184.882 37.7989C185.194 37.8918 185.754 37.998 186.124 38.0379C186.575 38.0843 187.021 38.0843 187.492 38.0379C187.88 37.998 188.453 37.8918 188.765 37.7989C189.077 37.706 189.649 37.467 190.038 37.2678C190.426 37.0753 190.941 36.75 191.183 36.5575C191.425 36.365 191.826 35.9999 192.068 35.741C192.31 35.4887 192.685 34.9909 192.901 34.6457C193.118 34.3005 193.379 33.8225 193.474 33.5835C193.57 33.3445 193.716 32.9263 193.799 32.6542C193.882 32.382 193.996 31.8111 194.06 31.3929C194.149 30.7489 194.155 30.5166 194.092 29.8992C194.053 29.4943 193.945 28.8703 193.856 28.5052C193.767 28.1401 193.551 27.5426 193.379 27.1775C193.207 26.8124 192.933 26.3211 192.774 26.0822C192.609 25.8432 192.31 25.4781 192.112 25.259C191.915 25.0466 191.571 24.7147 191.342 24.5288C191.113 24.3363 190.699 24.0375 190.419 23.8716C190.139 23.699 189.63 23.4534 189.287 23.3272C188.949 23.2011 188.421 23.0484 188.109 22.9953C187.797 22.9356 187.212 22.8957 186.76 22.9024C186.321 22.9024 185.761 22.9489 185.519 22.9953C185.277 23.0418 184.844 23.1613 184.564 23.2542ZM43.0545 19.2446C43.2454 19.2446 43.57 19.2911 43.7673 19.3442C43.9709 19.3973 44.2764 19.5168 44.4546 19.6098C44.6264 19.7027 44.8937 19.8886 45.0401 20.0213C45.1865 20.1607 45.3965 20.4329 45.5174 20.6188C45.632 20.8113 45.772 21.0967 45.8293 21.2494C45.8802 21.4088 45.9438 21.7739 45.9629 22.0659C45.9948 22.4974 45.9757 22.6833 45.8675 23.0617C45.7911 23.314 45.6511 23.6592 45.5493 23.8251C45.4474 23.9911 43.1054 26.4738 40.3433 29.3416C37.5812 32.2094 33.6799 36.2588 31.6751 38.3366C29.6704 40.4144 27.9902 42.1869 27.9457 42.2798C27.8863 42.3904 27.8756 42.4944 27.9138 42.5918C27.9457 42.6781 28.0284 42.771 28.0984 42.8109C28.1811 42.8507 30.135 42.8772 33.5526 42.8772C38.2112 42.8772 38.9368 42.8905 39.2677 42.9835C39.4777 43.0432 39.7896 43.1693 39.9678 43.2623C40.1396 43.3552 40.4387 43.5809 40.6233 43.7668C40.827 43.9659 41.0497 44.2846 41.1706 44.5368C41.2852 44.7758 41.4125 45.1608 41.457 45.3998C41.527 45.745 41.527 45.9309 41.457 46.3292C41.4125 46.6147 41.2916 47.013 41.1706 47.2586C41.037 47.5374 40.8333 47.8162 40.5915 48.0485C40.3878 48.2477 40.0378 48.4999 39.395 48.8186H19.6021L19.1566 48.5929C18.8596 48.4468 18.5817 48.2366 18.3229 47.9622C18.1128 47.7432 17.8774 47.4245 17.801 47.2586C17.7246 47.0926 17.6164 46.7209 17.5528 46.4288C17.4637 45.9707 17.4573 45.8313 17.521 45.433C17.5655 45.1741 17.6864 44.7758 17.7946 44.5368C17.9728 44.1518 18.291 43.7933 20.9004 41.0716C22.4978 39.4054 27.7229 33.9752 32.5216 29.003C37.3139 24.0243 41.3679 19.8686 41.527 19.7558C41.6861 19.6429 42.0107 19.4836 42.2589 19.3973C42.5008 19.3177 42.8635 19.2513 43.0545 19.2446Z" fill="white"/>
</svg>
