<?xml version="1.0" encoding="utf-8"?>
<!-- Generator: Adobe Illustrator 24.0.2, SVG Export Plug-In . SVG Version: 6.00 Build 0)  -->
<svg version="1.1" id="Layer_1" xmlns="http://www.w3.org/2000/svg" xmlns:xlink="http://www.w3.org/1999/xlink" x="0px" y="0px"
	 viewBox="0 0 20 20" style="enable-background:new 0 0 20 20;" xml:space="preserve">
<style type="text/css">
	.st0{clip-path:url(#SVGID_2_);}
	.st1{fill:none;stroke:#475569;stroke-width:1.5;stroke-linecap:round;stroke-linejoin:round;}
</style>
<g>
	<defs>
		<rect id="SVGID_1_" width="20" height="20"/>
	</defs>
	<clipPath id="SVGID_2_">
		<use xlink:href="#SVGID_1_"  style="overflow:visible;"/>
	</clipPath>
	<g class="st0">
		<path class="st1" d="M8.2,3.5C8.8,3.4,9.4,3.3,10,3.3c5.8,0,9.2,6.7,9.2,6.7c-0.5,0.9-1.1,1.8-1.8,2.7 M11.8,11.8
			c-0.2,0.2-0.5,0.4-0.8,0.6c-0.3,0.1-0.6,0.2-1,0.2c-0.3,0-0.7-0.1-1-0.2s-0.6-0.3-0.8-0.6S7.7,11.3,7.6,11s-0.2-0.6-0.2-1
			c0-0.3,0.1-0.7,0.2-1C7.8,8.7,8,8.5,8.2,8.2 M14.9,14.9c-1.4,1.1-3.2,1.7-4.9,1.7c-5.8,0-9.2-6.7-9.2-6.7c1-1.9,2.5-3.6,4.2-4.9"
			/>
		<path class="st1" d="M19.2,19.2"/>
		<path class="st1" d="M0.8,0.8"/>
	</g>
</g>
<path class="st1" d="M7.7,9C7.8,8.7,8,8.5,8.3,8.3C8.6,8,8.9,7.9,9.2,7.8c0.3-0.1,0.7-0.1,1-0.1c0.3,0,0.7,0.2,0.9,0.3
	c0.3,0.2,0.5,0.4,0.7,0.7s0.3,0.6,0.4,0.9c0.1,0.3,0.1,0.7,0,1c-0.1,0.3-0.2,0.6-0.4,0.9"/>
</svg>
