<svg width="36" height="36" viewBox="0 0 36 36" fill="none" xmlns="http://www.w3.org/2000/svg">
<g clip-path="url(#clip0_1_3832)">
<path d="M31.5 9H21.621L19.8825 7.2615L25.5 3.75L19.5 0H16.5V6.879L14.379 9H4.5C3.30653 9 2.16193 9.47411 1.31802 10.318C0.474106 11.1619 0 12.3065 0 13.5L0 36H36V13.5C36 12.3065 35.5259 11.1619 34.682 10.318C33.8381 9.47411 32.6935 9 31.5 9ZM31.5 12C31.8978 12 32.2794 12.158 32.5607 12.4393C32.842 12.7206 33 13.1022 33 13.5V15H27.621L24.621 12H31.5ZM4.5 12H11.379L8.379 15H3V13.5C3 13.1022 3.15804 12.7206 3.43934 12.4393C3.72064 12.158 4.10218 12 4.5 12ZM19.5 33H16.5V28.5C16.5 28.1022 16.658 27.7206 16.9393 27.4393C17.2206 27.158 17.6022 27 18 27C18.3978 27 18.7794 27.158 19.0607 27.4393C19.342 27.7206 19.5 28.1022 19.5 28.5V33ZM22.5 33V28.5C22.5 27.3065 22.0259 26.1619 21.182 25.318C20.3381 24.4741 19.1935 24 18 24C16.8065 24 15.6619 24.4741 14.818 25.318C13.9741 26.1619 13.5 27.3065 13.5 28.5V33H3V18H9.621L18 9.621L26.379 18H33V33H22.5ZM6 21H10.5V24H6V21ZM6 27H10.5V30H6V27ZM25.5 21H30V24H25.5V21ZM25.5 27H30V30H25.5V27ZM21 18C21 18.5933 20.8241 19.1734 20.4944 19.6667C20.1648 20.1601 19.6962 20.5446 19.1481 20.7716C18.5999 20.9987 17.9967 21.0581 17.4147 20.9424C16.8328 20.8266 16.2982 20.5409 15.8787 20.1213C15.4591 19.7018 15.1734 19.1672 15.0576 18.5853C14.9419 18.0033 15.0013 17.4001 15.2284 16.8519C15.4554 16.3038 15.8399 15.8352 16.3333 15.5056C16.8266 15.1759 17.4067 15 18 15C18.7956 15 19.5587 15.3161 20.1213 15.8787C20.6839 16.4413 21 17.2044 21 18Z" fill="#374957"/>
</g>
<defs>
<clipPath id="clip0_1_3832">
<rect width="36" height="36" fill="white"/>
</clipPath>
</defs>
</svg>
