<svg width="40" height="41" viewBox="0 0 40 41" fill="none" xmlns="http://www.w3.org/2000/svg">
<g clip-path="url(#clip0_17_15872)">
<path d="M38.3346 18.834H35.0013V15.5006C35.0013 15.0586 34.8257 14.6347 34.5131 14.3221C34.2006 14.0096 33.7766 13.834 33.3346 13.834C32.8926 13.834 32.4687 14.0096 32.1561 14.3221C31.8436 14.6347 31.668 15.0586 31.668 15.5006V18.834H28.3346C27.8926 18.834 27.4687 19.0096 27.1561 19.3221C26.8436 19.6347 26.668 20.0586 26.668 20.5006C26.668 20.9427 26.8436 21.3666 27.1561 21.6791C27.4687 21.9917 27.8926 22.1673 28.3346 22.1673H31.668V25.5006C31.668 25.9427 31.8436 26.3666 32.1561 26.6791C32.4687 26.9917 32.8926 27.1673 33.3346 27.1673C33.7766 27.1673 34.2006 26.9917 34.5131 26.6791C34.8257 26.3666 35.0013 25.9427 35.0013 25.5006V22.1673H38.3346C38.7766 22.1673 39.2006 21.9917 39.5131 21.6791C39.8257 21.3666 40.0013 20.9427 40.0013 20.5006C40.0013 20.0586 39.8257 19.6347 39.5131 19.3221C39.2006 19.0096 38.7766 18.834 38.3346 18.834Z" fill="white"/>
<path d="M15 20.5C16.9778 20.5 18.9112 19.9135 20.5557 18.8147C22.2002 17.7159 23.4819 16.1541 24.2388 14.3268C24.9957 12.4996 25.1937 10.4889 24.8079 8.5491C24.422 6.60929 23.4696 4.82746 22.0711 3.42894C20.6725 2.03041 18.8907 1.078 16.9509 0.692152C15.0111 0.306299 13.0004 0.504333 11.1732 1.26121C9.3459 2.01809 7.78412 3.29981 6.6853 4.9443C5.58649 6.58879 5 8.52219 5 10.5C5.00265 13.1514 6.05707 15.6934 7.93186 17.5681C9.80665 19.4429 12.3486 20.4974 15 20.5ZM15 3.83334C16.3185 3.83334 17.6075 4.22433 18.7038 4.95687C19.8001 5.68942 20.6546 6.73061 21.1592 7.94878C21.6638 9.16696 21.7958 10.5074 21.5386 11.8006C21.2813 13.0938 20.6464 14.2817 19.714 15.2141C18.7817 16.1464 17.5938 16.7813 16.3006 17.0386C15.0074 17.2958 13.667 17.1638 12.4488 16.6592C11.2306 16.1546 10.1894 15.3001 9.45687 14.2038C8.72433 13.1075 8.33333 11.8185 8.33333 10.5C8.33333 8.73189 9.03571 7.0362 10.286 5.78596C11.5362 4.53572 13.2319 3.83334 15 3.83334Z" fill="white"/>
<path d="M15 23.834C11.0231 23.8384 7.21036 25.4202 4.39827 28.2323C1.58618 31.0443 0.00441142 34.8571 0 38.834C0 39.276 0.175595 39.6999 0.488155 40.0125C0.800716 40.3251 1.22464 40.5007 1.66667 40.5007C2.10869 40.5007 2.53262 40.3251 2.84518 40.0125C3.15774 39.6999 3.33333 39.276 3.33333 38.834C3.33333 35.7398 4.5625 32.7723 6.75042 30.5844C8.93834 28.3965 11.9058 27.1673 15 27.1673C18.0942 27.1673 21.0617 28.3965 23.2496 30.5844C25.4375 32.7723 26.6667 35.7398 26.6667 38.834C26.6667 39.276 26.8423 39.6999 27.1548 40.0125C27.4674 40.3251 27.8913 40.5007 28.3333 40.5007C28.7754 40.5007 29.1993 40.3251 29.5118 40.0125C29.8244 39.6999 30 39.276 30 38.834C29.9956 34.8571 28.4138 31.0443 25.6017 28.2323C22.7896 25.4202 18.9769 23.8384 15 23.834Z" fill="white"/>
</g>
<defs>
<clipPath id="clip0_17_15872">
<rect width="40" height="40" fill="white" transform="translate(0 0.5)"/>
</clipPath>
</defs>
</svg>
